<svg width="100" height="100" viewBox="0 0 20 17" fill="none" xmlns="http://www.w3.org/2000/svg">
<g clip-path="url(#clip0_0_1030)">
<path d="M19.0251 7.26091C19.027 7.24699 19.027 7.23291 19.0251 7.21899C19.0269 7.20765 19.0269 7.19608 19.0251 7.18471L18.889 6.2056C18.8694 6.08846 18.8169 5.97897 18.7375 5.88939L18.7141 5.86272L18.6714 5.82081L16.3165 3.83211L16.3825 3.89688C16.3285 3.83348 16.2606 3.78277 16.184 3.74849C16.1073 3.7142 16.0238 3.69721 15.9395 3.69877H15.2245C15.1082 3.69651 14.9946 3.73275 14.9019 3.80163C14.8046 3.73317 14.6875 3.69711 14.5677 3.69877H13.8527C13.7589 3.69728 13.6664 3.72009 13.5845 3.76492C13.5026 3.80974 13.4343 3.87498 13.3864 3.95402C13.3125 4.06692 13.2848 4.20294 13.3086 4.335L13.398 4.95218C13.3388 4.91927 13.2718 4.9022 13.2037 4.90266H9.74122C9.61699 4.90342 9.49562 4.93912 9.39146 5.00552C9.29075 5.06732 9.2099 5.15582 9.15831 5.26077L8.89016 5.036C8.78463 4.94027 8.64533 4.88838 8.50156 4.89123H3.06884C2.94417 4.89346 2.82227 4.9276 2.71522 4.99028C2.56876 5.07432 2.46143 5.21097 2.41598 5.37126L0.690567 11.0288C0.658328 11.122 0.655156 11.2225 0.681459 11.3175C0.707761 11.4125 0.762345 11.4977 0.838239 11.5622C0.858014 11.5786 0.878779 11.5939 0.900417 11.6079C0.900417 11.6079 0.865437 11.585 0.846007 11.566L3.20097 13.5585C3.30059 13.6484 3.43084 13.6986 3.56624 13.6994H9.04173C9.16678 13.6962 9.28876 13.6608 9.39537 13.5966C9.45566 13.5642 9.5096 13.5217 9.55469 13.4708L9.57412 13.4442L9.60521 13.4061L9.62852 13.3642L9.88501 13.5813C9.9832 13.6677 10.1106 13.7152 10.2425 13.7147H15.7296C15.8546 13.7106 15.9763 13.6752 16.0833 13.6118C16.1422 13.5775 16.1958 13.5352 16.2426 13.4861L16.262 13.4594L16.2931 13.4213C16.3096 13.3972 16.324 13.3717 16.3359 13.3451C16.3486 13.322 16.359 13.2978 16.367 13.2727L17.9408 8.10668V8.06096C17.9428 8.04323 17.9428 8.02535 17.9408 8.00763V7.97335C17.9427 7.96198 17.9427 7.95041 17.9408 7.93904C17.9426 7.91495 17.9426 7.89076 17.9408 7.86665H18.446C18.49 7.87061 18.5342 7.87061 18.5781 7.86665H18.6131C18.6416 7.85834 18.6689 7.84682 18.6947 7.83237H18.7336L18.8035 7.77904L18.8346 7.75617L18.889 7.68759V7.66475L18.9279 7.59997C18.9257 7.58738 18.9257 7.57448 18.9279 7.56189C18.9258 7.5557 18.9258 7.54902 18.9279 7.54283C18.9361 7.5205 18.9426 7.49756 18.9473 7.47425C18.9455 7.46674 18.9455 7.4589 18.9473 7.45139C18.9454 7.44004 18.9454 7.42845 18.9473 7.41711C18.9473 7.41711 19.0251 7.26852 19.0251 7.26091Z" fill="black"/>
<path d="M8.66091 5.32551C8.68155 5.3438 8.69595 5.36785 8.7022 5.39441C8.70848 5.42098 8.70626 5.44879 8.6959 5.47409L6.97438 11.1278C6.9527 11.1895 6.90835 11.2411 6.85002 11.2726C6.80256 11.3037 6.74763 11.3221 6.69068 11.3259H1.21911C1.17238 11.3237 1.12811 11.3047 1.09475 11.2726C1.0749 11.2546 1.06098 11.2312 1.05475 11.2054C1.04852 11.1796 1.05027 11.1526 1.05978 11.1278L2.78519 5.47409C2.80507 5.41158 2.84803 5.3586 2.90566 5.32551C2.9539 5.29662 3.00857 5.27962 3.06499 5.27598H8.53656C8.58292 5.27642 8.62738 5.29413 8.66091 5.32551ZM5.80465 9.98867L6.83447 6.61321H3.95102L2.92508 9.98867H5.80465ZM13.8838 5.38265C13.9025 5.40392 13.9258 5.42079 13.952 5.432C13.9783 5.44321 14.0067 5.44849 14.0354 5.44742H14.7465C14.7736 5.44768 14.8003 5.44117 14.8241 5.4285C14.8479 5.41584 14.868 5.39743 14.8825 5.37503C14.8951 5.35754 14.9041 5.33773 14.9087 5.31678C14.9134 5.29584 14.9137 5.27419 14.9097 5.25312L14.7698 4.24734C14.7565 4.20079 14.7326 4.15781 14.6999 4.12162C14.6812 4.10035 14.6579 4.08348 14.6316 4.07227C14.6054 4.06106 14.5769 4.05579 14.5483 4.05685H13.8372C13.8101 4.05659 13.7834 4.06311 13.7596 4.07577C13.7358 4.08844 13.7157 4.10684 13.7012 4.12924C13.6739 4.18258 13.6623 4.21686 13.6739 4.24734L13.8177 5.25312C13.8251 5.3021 13.8483 5.34748 13.8838 5.38265ZM16.1416 4.23972C16.1283 4.19317 16.1043 4.15019 16.0716 4.114C16.0538 4.09281 16.0311 4.07595 16.0055 4.06471C15.9799 4.05348 15.952 4.04818 15.924 4.04923H15.2089C15.1823 4.04849 15.156 4.05482 15.1327 4.06757C15.1094 4.08031 15.0901 4.09899 15.0768 4.12162C15.051 4.15542 15.0398 4.19787 15.0457 4.23972L15.1895 5.2455C15.1985 5.29396 15.2214 5.33889 15.2556 5.37503C15.2746 5.39589 15.298 5.41247 15.3241 5.42365C15.3503 5.43483 15.3786 5.44033 15.4071 5.4398H16.1222C16.1487 5.44014 16.1749 5.43364 16.1981 5.42093C16.2213 5.40823 16.2407 5.38978 16.2543 5.36742C16.2678 5.35037 16.2773 5.33057 16.282 5.30948C16.2867 5.28838 16.2865 5.26652 16.2815 5.2455L16.1416 4.23972ZM13.2581 5.76363L13.1882 5.26836H9.74125C9.68713 5.27128 9.63477 5.28839 9.58968 5.31789C9.56107 5.33319 9.53615 5.3544 9.51669 5.38005C9.49726 5.4057 9.48371 5.43518 9.47701 5.46647L9.18943 6.41129C9.17795 6.4349 9.17402 6.46139 9.17818 6.48723C9.18236 6.51307 9.1944 6.53706 9.21274 6.55607C9.24551 6.58627 9.28828 6.60387 9.33322 6.6056H13.5224L12.4926 9.98106H8.31506C8.26119 9.98226 8.20873 9.99809 8.16351 10.0268C8.10855 10.061 8.06841 10.1139 8.05081 10.1753L7.75936 11.1202C7.74984 11.1444 7.74734 11.1708 7.75214 11.1963C7.75696 11.2219 7.76884 11.2456 7.78654 11.2649C7.8183 11.2972 7.8614 11.3162 7.90702 11.3183H13.3941C13.4509 11.3135 13.5056 11.2952 13.5535 11.2649C13.6108 11.2333 13.6539 11.1816 13.6739 11.1202L15.2517 5.95412H13.4758C13.4476 5.95466 13.4196 5.94954 13.3935 5.93905C13.3675 5.92857 13.3439 5.91294 13.3242 5.89316C13.2921 5.85861 13.2694 5.81669 13.2581 5.77125V5.76363Z" fill="white"/>
</g>
<defs>
<clipPath id="clip0_0_1030">
<rect width="18.3627" height="10.016" fill="white" transform="translate(0.663818 3.69867)"/>
</clipPath>
</defs>
</svg>
