<svg width="100" height="100" viewBox="0 0 17 17" fill="none" xmlns="http://www.w3.org/2000/svg">
<g clip-path="url(#clip0_0_999)">
<path fill-rule="evenodd" clip-rule="evenodd" d="M5.17758 5.40626L1.84366 8.70666C2.5105 9.36682 3.27227 9.92317 4.10281 10.3584C4.33238 10.9613 4.69222 11.5266 5.18232 12.0118C7.02624 13.8371 10.0158 13.8371 11.8597 12.0118C12.3498 11.5266 12.7096 10.9613 12.9392 10.3584C13.7697 9.92317 14.5315 9.36682 15.1983 8.70666L11.8671 5.40895C11.8646 5.40648 11.8622 5.40401 11.8597 5.40155C10.0158 3.57619 7.02624 3.57619 5.18232 5.40155C5.18074 5.40312 5.17916 5.40469 5.17758 5.40626ZM11.5406 10.9539C10.5691 11.2785 9.5492 11.4447 8.52099 11.4447C7.49278 11.4447 6.47292 11.2785 5.50137 10.9539C5.60663 11.0921 5.72285 11.2248 5.85006 11.3508C7.32518 12.8111 9.7168 12.8111 11.1919 11.3508C11.3191 11.2248 11.4354 11.0921 11.5406 10.9539ZM5.91853 5.99647C6.16903 6.1603 6.43539 6.30049 6.7141 6.41479C7.28695 6.64968 7.90093 6.77058 8.52099 6.77058C9.14105 6.77058 9.75503 6.64968 10.3279 6.41479C10.6066 6.30049 10.8729 6.1603 11.1235 5.99646C9.66675 4.62432 7.37523 4.62432 5.91853 5.99647Z" fill="#3B4158"/>
</g>
<defs>
<clipPath id="clip0_0_999">
<rect width="13.3547" height="9.34826" fill="white" transform="translate(1.84366 4.03253)"/>
</clipPath>
</defs>
</svg>
