<svg width="100" height="100" viewBox="0 0 17 17" fill="none" xmlns="http://www.w3.org/2000/svg">
<g clip-path="url(#clip0_0_1006)">
<path d="M15.3939 5.22263C15.3939 5.23392 15.3939 5.24803 15.3909 5.2565C15.3762 5.36657 15.3762 5.47664 15.385 5.58954C15.3909 5.61776 15.3968 5.64598 15.4203 5.66856C15.4586 5.71089 15.5174 5.70243 15.5409 5.65163C15.5527 5.62623 15.5527 5.60082 15.5468 5.57542C15.5174 5.46818 15.5115 5.35528 15.5086 5.24521C15.5086 5.23957 15.5086 5.2311 15.5086 5.22263C15.5409 5.21981 15.5703 5.21699 15.5968 5.21699C15.6174 5.21417 15.635 5.21134 15.6497 5.20288C15.6938 5.1803 15.6938 5.13232 15.6468 5.10974C15.6291 5.10127 15.6056 5.09845 15.585 5.09845C15.5115 5.10127 15.438 5.10127 15.3645 5.10127C15.338 5.10127 15.3115 5.1041 15.2851 5.10692C15.2704 5.10974 15.2527 5.10974 15.241 5.11821C15.2204 5.12667 15.2086 5.14078 15.2086 5.16054C15.2116 5.1803 15.2204 5.19159 15.241 5.20005C15.2527 5.20852 15.2674 5.21134 15.2821 5.21134C15.3174 5.21417 15.3556 5.21981 15.3939 5.22263ZM16.2025 5.35246C16.2025 5.35528 16.2055 5.3581 16.2055 5.3581C16.2172 5.43431 16.229 5.50769 16.2378 5.58107C16.2408 5.60647 16.2437 5.62905 16.2614 5.6488C16.2996 5.69678 16.3584 5.69114 16.3848 5.64034C16.3966 5.61494 16.3996 5.58954 16.3937 5.56131C16.376 5.47664 16.3672 5.39197 16.3496 5.31013C16.3378 5.25932 16.3231 5.21134 16.3084 5.16619C16.2996 5.13796 16.279 5.11821 16.2437 5.11538C16.2084 5.10974 16.182 5.12667 16.1672 5.15208C16.1496 5.17465 16.1349 5.19723 16.1231 5.22263C16.1026 5.26779 16.0849 5.31295 16.0614 5.35528C16.0584 5.36657 16.0555 5.37504 16.0496 5.3835C16.0467 5.37786 16.0438 5.37504 16.0438 5.37504C16.0055 5.30448 15.9702 5.23392 15.932 5.16619C15.9261 5.16054 15.9232 5.1549 15.9202 5.14925C15.9026 5.12385 15.882 5.10974 15.8497 5.10974C15.8203 5.11256 15.7967 5.1295 15.782 5.1549C15.7761 5.16619 15.7761 5.17465 15.7732 5.18594C15.7614 5.27626 15.7467 5.36657 15.735 5.45689C15.7291 5.50769 15.7262 5.55849 15.7262 5.60929C15.7232 5.62058 15.7262 5.63469 15.732 5.64598C15.7379 5.66856 15.7556 5.68267 15.7791 5.68549C15.8085 5.68832 15.8291 5.67985 15.8379 5.65727C15.8467 5.64034 15.8497 5.62623 15.8526 5.61212C15.8644 5.56131 15.8732 5.51333 15.882 5.46535C15.8879 5.43713 15.8908 5.41455 15.8997 5.3835C15.9055 5.3948 15.9114 5.40326 15.9173 5.41173C15.9438 5.4456 15.9702 5.47947 16.0026 5.50769C16.0349 5.53027 16.0614 5.52744 16.0878 5.50204C16.0937 5.4964 16.0967 5.49358 16.1026 5.48793C16.129 5.44842 16.1614 5.40891 16.1878 5.36939C16.1937 5.36375 16.1967 5.3581 16.2025 5.35246Z" fill="#3A3B7B"/>
<path d="M9.42695 5.27807C9.4065 5.33171 9.4026 5.37035 9.41204 5.40247C9.42246 5.44615 9.44952 5.46045 9.48624 5.44934C9.83164 5.36736 10.589 5.60004 10.8694 5.66489C10.9356 5.67851 10.9894 5.59657 10.9442 5.52311C10.8784 5.45197 10.1213 5.14739 9.83247 5.13078C9.71924 5.12464 9.51682 5.09677 9.42695 5.27807Z" fill="#3A3B7B"/>
<path d="M12.387 4.2921C12.4238 4.31249 12.4444 4.33194 12.4545 4.35368C12.4697 4.38219 12.4617 4.40191 12.4363 4.41198C12.208 4.51893 11.9041 4.97936 11.7815 5.13816C11.7518 5.17469 11.6832 5.15346 11.6729 5.09338C11.675 5.02546 11.9443 4.52579 12.0946 4.3897C12.1537 4.33656 12.2512 4.2323 12.387 4.2921Z" fill="#3A3B7B"/>
<path d="M10.5688 4.06546C10.613 4.03347 10.659 4.02226 10.6824 4.04305C11.0269 4.3258 11.2096 4.77356 11.3227 5.18348C11.327 5.19303 11.3272 5.20673 11.3238 5.22103C11.3224 5.23325 11.3131 5.24616 11.2983 5.25615C11.2826 5.26717 11.269 5.27053 11.2626 5.26103C11.1116 5.06394 10.2493 4.29709 10.5688 4.06546Z" fill="#3A3B7B"/>
<path d="M3.27408 8.96765C3.35664 8.90866 3.4464 8.85954 3.54138 8.82143C3.64075 8.79417 3.74667 8.79868 3.84313 8.83433C3.93957 8.86997 4.02132 8.93478 4.07597 9.01897C4.12486 9.10294 4.14398 9.19989 4.13049 9.29522C4.11699 9.39052 4.0716 9.47905 4.00112 9.54746C3.94649 9.60291 3.88447 9.65121 3.8167 9.69113C3.51466 9.87841 3.20992 10.0554 2.9052 10.2427C2.84285 10.2896 2.77671 10.3316 2.7074 10.3684C2.60198 10.4189 2.48151 10.4324 2.3668 10.4066C2.2521 10.3809 2.15039 10.3174 2.07925 10.2273C2.02607 10.1635 1.98119 10.0937 1.9456 10.0195C1.65691 9.43715 1.35754 8.85734 1.07955 8.26471C0.951244 8.00818 0.846998 7.71313 0.745424 7.42837C0.701479 7.34563 0.692897 7.24971 0.721507 7.16099C0.750116 7.07227 0.81366 6.99776 0.898621 6.95331C0.983582 6.90886 1.08326 6.89799 1.17645 6.92299C1.26964 6.94798 1.34899 7.00689 1.39763 7.08716C1.54714 7.27786 1.67949 7.48041 1.79324 7.69263C2.08192 8.20571 2.35724 8.7188 2.63523 9.21651C2.65142 9.24401 2.66927 9.27055 2.68869 9.29603C2.89793 9.2116 3.09472 9.1012 3.27408 8.96765Z" fill="#3A3B7B"/>
<path d="M6.25885 8.78869C5.59863 9.5301 4.49201 9.34282 3.93603 8.38847C3.54042 7.71118 3.47093 6.59263 4.33164 5.88713C4.51543 5.73943 4.73521 5.63881 4.97047 5.59466C5.25893 5.55497 5.55308 5.60381 5.81088 5.73421C6.06867 5.86461 6.27692 6.06988 6.40588 6.3207C6.87632 7.14165 6.8095 8.18836 6.25885 8.78869ZM5.99155 7.05955C5.92141 6.85781 5.7807 6.68558 5.59328 6.5721C5.48722 6.49955 5.35835 6.46428 5.22838 6.47222C5.09838 6.48017 4.97522 6.53084 4.87959 6.61572C4.49737 6.94154 4.41716 7.71376 4.69515 8.17298C4.73059 8.24786 4.78262 8.3144 4.84765 8.36796C4.91268 8.42152 4.98912 8.4608 5.07162 8.48302C5.15411 8.50527 5.24066 8.50994 5.32524 8.49671C5.40982 8.48346 5.49034 8.45266 5.56122 8.40643C5.76842 8.25224 5.92043 8.03994 5.99611 7.79903C6.07181 7.5581 6.06741 7.30053 5.98355 7.06213L5.99155 7.05955Z" fill="#3A3B7B"/>
<path d="M8.95322 7.38278C8.88563 7.39673 8.81581 7.39757 8.74786 7.38522C8.67994 7.37288 8.61524 7.34764 8.55763 7.31096C8.50722 7.28327 8.46382 7.24523 8.43055 7.19952C8.39731 7.15382 8.37503 7.10162 8.36532 7.04666C8.35559 6.99171 8.35871 6.93538 8.37437 6.88171C8.39007 6.82804 8.41798 6.77837 8.45606 6.73628C8.52242 6.65169 8.61661 6.59113 8.72336 6.5644C9.00207 6.48676 9.28898 6.43943 9.57871 6.4233C9.64238 6.41619 9.70687 6.42137 9.76841 6.43851C9.82996 6.45567 9.8873 6.48443 9.93711 6.52316C9.9869 6.56187 10.0281 6.60975 10.0584 6.66397C10.0887 6.71819 10.1073 6.77767 10.1133 6.83891C10.1968 7.13971 10.206 7.45511 10.14 7.75992C9.89948 8.74505 9.07084 9.08369 8.14064 8.76814C7.87953 8.68377 7.65058 8.52657 7.48309 8.31662C7.25968 8.06379 7.10128 7.76415 7.02065 7.4418C6.95533 7.15474 6.96248 6.85689 7.04154 6.57305C7.12058 6.2892 7.26923 6.02762 7.47506 5.81015C7.6704 5.57378 7.92393 5.38776 8.21282 5.26883C8.39536 5.17226 8.60897 5.14481 8.81157 5.19187C8.85752 5.20408 8.89924 5.22786 8.93239 5.26076C8.96555 5.29366 8.98893 5.33448 9.00012 5.37897C9.0113 5.42347 9.00987 5.47002 8.99599 5.51381C8.98209 5.5576 8.95627 5.59702 8.92116 5.628C8.85441 5.68599 8.78189 5.73755 8.70464 5.78193C8.467 5.92717 8.26021 6.11434 8.0952 6.3335C7.98704 6.47532 7.91254 6.63818 7.87699 6.81059C7.84142 6.983 7.84565 7.16079 7.88939 7.33149C7.95 7.56421 8.08453 7.7731 8.27428 7.92923C8.86234 8.44233 9.62682 7.94718 9.49317 7.24681C9.29806 7.293 9.12697 7.34174 8.95322 7.38278Z" fill="#3A3B7B"/>
<path d="M12.5458 8.82971C11.6771 9.34282 10.6881 8.82971 10.4716 7.75222C10.3139 6.98258 10.6132 5.90507 11.6611 5.4946C11.884 5.40914 12.1258 5.37914 12.364 5.40737C12.6503 5.45766 12.9129 5.59291 13.1148 5.79405C13.3166 5.99519 13.4477 6.25206 13.4894 6.52849C13.6658 7.44435 13.2648 8.42181 12.5458 8.82971ZM12.8479 7.10314C12.8476 6.89003 12.769 6.6838 12.626 6.52079C12.5495 6.41996 12.439 6.34772 12.3132 6.31636C12.1875 6.28503 12.0543 6.29651 11.9364 6.34891C11.4659 6.54387 11.1345 7.25194 11.2547 7.77275C11.2639 7.85448 11.2916 7.9333 11.3358 8.00369C11.3801 8.07408 11.4398 8.13436 11.5108 8.1803C11.5818 8.22623 11.6625 8.25673 11.747 8.26964C11.8316 8.28254 11.9181 8.27756 12.0005 8.25505C12.2492 8.17168 12.4645 8.01586 12.6164 7.80935C12.7683 7.60283 12.8492 7.35594 12.8479 7.10314Z" fill="#3A3B7B"/>
<path d="M14.3678 9.04523C14.3547 9.13912 14.3033 9.22417 14.2248 9.28167C14.1464 9.33915 14.0473 9.36439 13.9495 9.3518C13.8517 9.33921 13.763 9.28983 13.7032 9.21453C13.6432 9.13926 13.617 9.04419 13.6301 8.9503C13.6432 8.8564 13.6946 8.77136 13.7731 8.71386C13.8515 8.65636 13.9506 8.63114 14.0484 8.64373C14.1462 8.65631 14.2348 8.70567 14.2948 8.78097C14.3546 8.85627 14.3809 8.95133 14.3678 9.04523ZM14.1353 5.58439C14.1861 5.50987 14.2607 5.45312 14.3479 5.42261C14.4351 5.39209 14.5302 5.38945 14.6191 5.41507C14.7094 5.43677 14.7893 5.4876 14.8452 5.55906C14.9012 5.63051 14.9299 5.71825 14.9265 5.80759C14.9147 5.95087 14.8924 6.09319 14.8597 6.23345C14.7714 6.70807 14.6859 7.18267 14.5924 7.65217C14.5496 7.83945 14.4935 8.01903 14.432 8.20887C14.4106 8.26822 14.3748 8.32184 14.3277 8.36537C14.2984 8.39811 14.261 8.42322 14.2189 8.43838C14.1768 8.45356 14.1314 8.45829 14.0869 8.45215C14.0424 8.44601 14.0002 8.4292 13.9643 8.40328C13.9284 8.37734 13.8998 8.34312 13.8813 8.3038C13.8496 8.23325 13.8323 8.15744 13.8305 8.0806C13.8305 7.76248 13.8305 7.4418 13.8519 7.1211C13.8883 6.66345 13.9597 6.20898 14.0658 5.76141C14.0782 5.70144 14.1018 5.6441 14.1353 5.59209V5.58439Z" fill="#3A3B7B"/>
<path fill-rule="evenodd" clip-rule="evenodd" d="M2.14473 11.1068C2.11317 11.1744 2.10451 11.2498 2.11994 11.3224C2.1302 11.418 2.15273 11.5121 2.18703 11.6024C2.22985 11.713 2.27777 11.8225 2.33685 11.9573C2.35043 11.9883 2.36463 12.0207 2.37949 12.0548C2.45916 12.2375 2.55913 12.471 2.69248 12.8088C2.73022 12.9048 2.76374 13.0016 2.79749 13.099C2.81112 13.1384 2.82481 13.1779 2.83881 13.2175C2.88902 13.3582 2.9754 13.4847 3.08991 13.5849C3.13853 13.64 3.20302 13.6801 3.27534 13.7002C3.34907 13.7206 3.42748 13.7193 3.50042 13.6965C3.57337 13.6735 3.63744 13.6301 3.68431 13.5718C3.73026 13.5146 3.75759 13.4457 3.7629 13.3737C3.79272 13.2334 3.78254 13.088 3.7334 12.9528C3.65541 12.7282 3.56658 12.5034 3.46413 12.2835L3.46366 12.2825C3.29513 11.9384 3.12382 11.5968 2.94441 11.2549L2.94307 11.2525C2.89054 11.1635 2.82229 11.0839 2.74136 11.0173C2.68883 10.9578 2.61636 10.9177 2.53633 10.9039C2.4546 10.8898 2.3703 10.904 2.29849 10.9441C2.23056 10.9813 2.17671 11.0383 2.14473 11.1068Z" fill="#3A3B7B"/>
<path fill-rule="evenodd" clip-rule="evenodd" d="M4.71874 10.2596C4.45449 10.1939 4.17852 10.1843 3.91005 10.2315C3.70212 10.2512 3.49761 10.2972 3.3556 10.3884C3.28337 10.4348 3.22497 10.4944 3.19249 10.5701C3.15983 10.6463 3.15566 10.7334 3.18243 10.8304C3.2313 11.0082 3.29476 11.181 3.358 11.3533L3.36824 11.3812L3.36849 11.3818C3.55889 11.8823 3.75112 12.3811 3.94509 12.8781C3.96771 12.9565 3.9997 13.032 4.04041 13.1033L4.04117 13.1046C4.09495 13.1932 4.16392 13.2724 4.24518 13.3389C4.28583 13.3755 4.33608 13.4008 4.39058 13.4121C4.44561 13.4235 4.50284 13.4202 4.55604 13.4025C4.60925 13.3848 4.65637 13.3535 4.69229 13.3118C4.72761 13.2709 4.75075 13.2215 4.75924 13.169C4.7943 13.0264 4.78307 12.8769 4.72703 12.7405C4.70955 12.6947 4.69583 12.6478 4.68137 12.5984C4.67655 12.5819 4.67166 12.5652 4.66651 12.5481C5.11052 12.3816 5.58295 12.1576 5.74908 11.6365C5.81413 11.4564 5.81956 11.2615 5.76459 11.0783C5.70958 10.8949 5.59671 10.7324 5.44154 10.6131C5.23036 10.4461 4.98366 10.3254 4.71874 10.2596ZM3.98627 10.8987C3.99501 10.8963 4.00382 10.894 4.01265 10.8919C4.30172 10.8483 4.59746 10.9064 4.84544 11.0555C4.95472 11.1285 4.99948 11.2095 5.00717 11.2875C5.01511 11.3678 4.98469 11.4548 4.92358 11.5385C4.80811 11.6965 4.5974 11.8229 4.40706 11.8465C4.2683 11.5398 4.12738 11.2207 3.98627 10.8987Z" fill="#3A3B7B"/>
<path d="M6.48045 9.69815C6.79513 9.55867 7.18494 9.53457 7.48996 9.63265C7.56679 9.65412 7.63343 9.70057 7.67851 9.76406C7.7233 9.82715 7.74397 9.90317 7.73706 9.97918C7.73662 10.0285 7.724 10.0771 7.70026 10.1208C7.67609 10.1654 7.6411 10.2038 7.59824 10.2326C7.55538 10.2615 7.5059 10.28 7.45401 10.2867C7.40209 10.2933 7.3493 10.2878 7.30005 10.2707L7.29631 10.2694L7.29279 10.2677C7.26759 10.255 7.24082 10.2455 7.21314 10.2393L7.21139 10.2389C6.99682 10.1842 6.79442 10.2748 6.72049 10.3862C6.68523 10.4393 6.68085 10.4929 6.71022 10.5417C6.74167 10.5939 6.81881 10.6525 6.97489 10.6942C7.01782 10.7056 7.06183 10.7165 7.10646 10.7276C7.22988 10.7582 7.35815 10.7901 7.48219 10.8343L7.48266 10.8344C8.05487 11.0434 8.26794 11.4762 8.19499 11.8832C8.12283 12.2857 7.77257 12.6521 7.24585 12.7385C7.05418 12.7793 6.85472 12.7713 6.6672 12.7155C6.47922 12.6594 6.30977 12.5572 6.17569 12.4188L6.1722 12.4152C6.12987 12.3631 6.1014 12.3018 6.08878 12.2368C6.07717 12.1782 6.08329 12.1176 6.10638 12.0622C6.12933 12.0071 6.16816 11.9594 6.21826 11.9246C6.27119 11.8852 6.33499 11.8616 6.40177 11.8567C6.46832 11.8518 6.53492 11.8657 6.59336 11.8966C6.65173 11.9237 6.70603 11.9582 6.75476 11.9992L6.75568 12C6.8419 12.0757 6.9462 12.0954 7.04622 12.0771C7.14771 12.0586 7.24313 12.001 7.30451 11.9245C7.36548 11.8485 7.38996 11.7582 7.36091 11.6706C7.33168 11.5824 7.24378 11.4835 7.05066 11.4008C7.00018 11.3802 6.94784 11.3636 6.89339 11.3475C6.8787 11.3431 6.86377 11.3388 6.84867 11.3344C6.80841 11.3227 6.76698 11.3106 6.72636 11.2973C6.69838 11.2881 6.67063 11.2794 6.64315 11.2708C6.56803 11.2474 6.49479 11.2245 6.42432 11.1938C6.27092 11.1437 6.13839 11.0474 6.04646 10.9193C5.95415 10.7906 5.9077 10.6368 5.91402 10.4807C5.91451 10.1004 6.16408 9.83841 6.48045 9.69815Z" fill="#3A3B7B"/>
<path d="M10.4701 9.65765C10.409 9.62904 10.3416 9.61546 10.2737 9.61813C10.2059 9.62081 10.1398 9.63965 10.0814 9.67298C10.0235 9.70608 9.9749 9.75242 9.9401 9.8079C9.90821 9.85461 9.88613 9.90685 9.87512 9.96171C9.86411 10.0165 9.86438 10.0729 9.87588 10.1275C9.88725 10.1978 9.89984 10.2662 9.91229 10.3336C9.93289 10.4451 9.95293 10.5541 9.96615 10.6653L9.96665 10.6681C9.99675 10.8425 10.0125 11.0188 10.0139 11.1955L10.0141 11.198C10.0243 11.3888 9.9566 11.5759 9.82535 11.7196L9.82327 11.7222C9.78056 11.7747 9.72347 11.8148 9.65835 11.838C9.59325 11.8611 9.52273 11.8665 9.45465 11.8534C9.38657 11.8402 9.32364 11.8092 9.27289 11.7637C9.22214 11.7182 9.18553 11.6599 9.16726 11.5957C9.12826 11.4602 9.10569 11.3208 9.09995 11.1804L9.16657 10.1624C9.16756 10.1491 9.16868 10.1354 9.16982 10.1217C9.17235 10.0907 9.17495 10.0593 9.17603 10.0299C9.1776 9.98666 9.17625 9.94221 9.16576 9.90014C9.15502 9.85714 9.1346 9.81624 9.09838 9.7814C9.06251 9.74692 9.01409 9.72148 8.95316 9.70416C8.84298 9.67356 8.74982 9.67452 8.67219 9.70615C8.59452 9.73777 8.5413 9.79648 8.50364 9.86429C8.46627 9.93154 8.44226 10.0112 8.4241 10.0909C8.41063 10.1501 8.3998 10.2122 8.38952 10.2713C8.38595 10.2917 8.38248 10.3117 8.37896 10.3311L8.37887 10.3317C8.32381 10.656 8.30743 10.9852 8.33002 11.313C8.33424 11.4902 8.37273 11.6651 8.44356 11.8287C8.52348 12.0399 8.66822 12.2228 8.8587 12.3534C9.04958 12.4843 9.27735 12.5564 9.51188 12.5602C9.7464 12.564 9.9766 12.4993 10.172 12.3748C10.3671 12.2504 10.5182 12.0721 10.6055 11.8635C10.7276 11.5978 10.785 11.3088 10.7731 11.0186C10.766 10.8068 10.7539 10.5933 10.742 10.3809C10.7361 10.2767 10.7303 10.1727 10.725 10.0694C10.7224 9.96574 10.6868 9.86537 10.623 9.78173C10.5835 9.72885 10.531 9.68621 10.4701 9.65765Z" fill="#3A3B7B"/>
<path d="M12.6297 11.2539C12.6235 11.2614 12.617 11.2693 12.6102 11.2774C12.5605 11.0026 12.5145 10.7279 12.4685 10.4527C12.452 10.354 12.4354 10.2549 12.4187 10.156L12.4168 10.145L12.4107 10.1355C12.3992 10.1176 12.398 10.1 12.398 10.0625V10.0581L12.3973 10.0539C12.3849 9.97642 12.3484 9.90436 12.2926 9.8471C12.237 9.79 12.1648 9.75026 12.0854 9.73301C12.0061 9.71424 11.9228 9.71837 11.8459 9.74491C11.7693 9.77138 11.7024 9.81896 11.6538 9.88167C11.6134 9.9298 11.5802 9.98318 11.5554 10.0402C11.499 10.1631 11.4421 10.2863 11.3851 10.4098L11.3841 10.4119C11.2417 10.7203 11.0984 11.0307 10.9592 11.3436L10.9588 11.3446C10.8734 11.5474 10.8029 11.7612 10.7326 11.9743C10.7185 12.0168 10.7045 12.0593 10.6904 12.1017C10.665 12.169 10.6539 12.2404 10.6577 12.3118C10.6531 12.3757 10.669 12.4395 10.7034 12.4945C10.7385 12.5506 10.791 12.5948 10.8536 12.6207C10.9199 12.6486 10.994 12.6546 11.0642 12.6376C11.1343 12.6206 11.1965 12.5818 11.2411 12.5272C11.2981 12.46 11.347 12.3867 11.387 12.309C11.5049 12.0776 11.6175 11.8433 11.7297 11.61C11.7731 11.5198 11.8153 11.439 11.8632 11.351C11.8665 11.3619 11.8699 11.3725 11.8734 11.3831C11.9236 11.5955 12.0085 11.799 12.1248 11.9861C12.1468 12.0257 12.1775 12.0604 12.2147 12.0876C12.2524 12.1152 12.2959 12.1346 12.3421 12.1444C12.3883 12.1543 12.4363 12.1543 12.4825 12.1446C12.5287 12.1348 12.5723 12.1154 12.61 12.088L12.6846 12.0344L13.2635 11.5664L13.2292 11.7758C13.1823 12.0636 13.1356 12.349 13.0861 12.6345C13.0537 12.761 13.0537 12.8932 13.0862 13.0196C13.1003 13.0908 13.1362 13.1564 13.1892 13.2079C13.2428 13.2599 13.3113 13.2951 13.386 13.3092C13.4607 13.3233 13.5381 13.3155 13.6081 13.2868C13.6771 13.2586 13.7358 13.2114 13.7768 13.1512C13.8723 13.0375 13.9317 12.8999 13.948 12.7548C13.9726 12.5498 14.0003 12.342 14.0281 12.1343C14.0601 11.8948 14.0921 11.6555 14.1191 11.4207L14.1192 11.42C14.1452 11.163 14.1577 10.9049 14.1569 10.6467C14.1626 10.5651 14.1414 10.4838 14.0963 10.4144C14.051 10.3447 13.984 10.2905 13.9048 10.2594C13.8224 10.2235 13.7301 10.2139 13.6416 10.2321C13.5537 10.2501 13.4741 10.2946 13.4144 10.359C13.3076 10.4538 13.2074 10.5552 13.1145 10.6626L13.1139 10.6634C13.0124 10.7847 12.9117 10.9084 12.8116 11.0313C12.7508 11.106 12.6901 11.1805 12.6297 11.2539Z" fill="#3A3B7B"/>
</g>
<defs>
<clipPath id="clip0_0_1006">
<rect width="15.6917" height="9.68213" fill="white" transform="translate(0.704895 4.03253)"/>
</clipPath>
</defs>
</svg>
