<svg width="100" height="100" viewBox="0 0 18 17" fill="none" xmlns="http://www.w3.org/2000/svg">
<g clip-path="url(#clip0_0_1026)">
<path d="M4.68712 5.36798C4.00913 5.36798 3.35891 5.63731 2.8795 6.11672L1.3149 7.68132C0.835492 8.16073 0.566162 8.81095 0.566162 9.48894C0.566162 10.9008 1.71069 12.0453 3.12253 12.0453C3.80053 12.0453 4.45074 11.776 4.93015 11.2966L6.01239 10.2143C6.01239 10.2143 6.01242 10.2143 6.01239 10.2143L9.16568 7.06104C9.39464 6.83208 9.70518 6.70345 10.029 6.70345C10.5711 6.70345 11.0307 7.05677 11.19 7.5457L12.1852 6.55053C11.7312 5.83948 10.9352 5.36798 10.029 5.36798C9.35099 5.36798 8.70078 5.63731 8.22137 6.11672L3.98585 10.3523C3.75688 10.5812 3.44634 10.7098 3.12253 10.7098C2.44824 10.7098 1.90163 10.1632 1.90163 9.48894C1.90163 9.16513 2.03026 8.85459 2.25922 8.62563L3.82381 7.06104C4.05278 6.83208 4.36332 6.70345 4.68712 6.70345C5.22925 6.70345 5.68883 7.05678 5.84818 7.54573L6.84337 6.55055C6.38937 5.83949 5.59332 5.36798 4.68712 5.36798Z" fill="#394149"/>
<path d="M9.32767 10.3522C9.09871 10.5812 8.78817 10.7098 8.46436 10.7098C7.92232 10.7098 7.46276 10.3566 7.30337 9.86774L6.30823 10.8629C6.76224 11.5738 7.55825 12.0453 8.46436 12.0453C9.14235 12.0453 9.79257 11.7759 10.272 11.2965L14.5075 7.06101C14.7365 6.83205 15.047 6.70342 15.3708 6.70342C16.0451 6.70342 16.5917 7.25003 16.5917 7.92432C16.5917 8.24813 16.4631 8.55867 16.2341 8.78763L14.6695 10.3522C14.4406 10.5812 14.13 10.7098 13.8062 10.7098C13.2641 10.7098 12.8046 10.3565 12.6452 9.86763L11.65 10.8628C12.104 11.5738 12.9001 12.0453 13.8062 12.0453C14.4842 12.0453 15.1344 11.7759 15.6138 11.2965L17.1784 9.73194C17.6578 9.25253 17.9272 8.60232 17.9272 7.92432C17.9272 6.51248 16.7827 5.36795 15.3708 5.36795C14.6928 5.36795 14.0426 5.63728 13.5632 6.11669L9.32767 10.3522Z" fill="#394149"/>
</g>
<defs>
<clipPath id="clip0_0_1026">
<rect width="17.3611" height="6.67733" fill="white" transform="translate(0.566162 5.36798)"/>
</clipPath>
</defs>
</svg>
