<svg width="100" height="100" viewBox="0 0 20 17" fill="none" xmlns="http://www.w3.org/2000/svg">
<g clip-path="url(#clip0_0_1002)">
<path d="M19.2992 7.26091C19.3011 7.24699 19.3011 7.23291 19.2992 7.21899C19.301 7.20765 19.301 7.19608 19.2992 7.18471L19.1632 6.2056C19.1435 6.08846 19.0911 5.97897 19.0116 5.88939L18.9883 5.86272L18.9456 5.82081L16.5906 3.83211L16.6566 3.89688C16.6026 3.83348 16.5348 3.78277 16.4581 3.74849C16.3814 3.7142 16.2979 3.69721 16.2137 3.69877H15.4986C15.3823 3.69651 15.2687 3.73275 15.1761 3.80163C15.0788 3.73317 14.9616 3.69711 14.8419 3.69877H14.1268C14.033 3.69728 13.9405 3.72009 13.8586 3.76492C13.7767 3.80974 13.7084 3.87498 13.6605 3.95402C13.5866 4.06692 13.5589 4.20294 13.5828 4.335L13.6722 4.95218C13.6129 4.91927 13.5459 4.9022 13.4778 4.90266H10.0154C9.89113 4.90342 9.76976 4.93912 9.6656 5.00552C9.56489 5.06732 9.48404 5.15582 9.43245 5.26077L9.1643 5.036C9.05877 4.94027 8.91947 4.88838 8.7757 4.89123H3.34298C3.21831 4.89346 3.09641 4.9276 2.98936 4.99028C2.8429 5.07432 2.73557 5.21097 2.69012 5.37126L0.964706 11.0288C0.932467 11.122 0.929296 11.2225 0.955598 11.3175C0.9819 11.4125 1.03648 11.4977 1.11238 11.5622C1.13215 11.5786 1.15292 11.5939 1.17456 11.6079C1.17456 11.6079 1.13958 11.585 1.12015 11.566L3.47511 13.5585C3.57473 13.6484 3.70498 13.6986 3.84038 13.6994H9.31587C9.44092 13.6962 9.5629 13.6608 9.66951 13.5966C9.7298 13.5642 9.78374 13.5217 9.82883 13.4708L9.84826 13.4442L9.87935 13.4061L9.90266 13.3642L10.1592 13.5813C10.2573 13.6677 10.3848 13.7152 10.5167 13.7147H16.0038C16.1287 13.7106 16.2505 13.6752 16.3574 13.6118C16.4164 13.5775 16.47 13.5352 16.5168 13.4861L16.5362 13.4594L16.5673 13.4213C16.5838 13.3972 16.5981 13.3717 16.61 13.3451C16.6227 13.322 16.6331 13.2978 16.6411 13.2727L18.215 8.10668V8.06096C18.2169 8.04323 18.2169 8.02535 18.215 8.00763V7.97335C18.2168 7.96198 18.2168 7.95041 18.215 7.93904C18.2167 7.91495 18.2167 7.89076 18.215 7.86665H18.7202C18.7641 7.87061 18.8083 7.87061 18.8523 7.86665H18.8873C18.9157 7.85834 18.9431 7.84682 18.9689 7.83237H19.0077L19.0777 7.77904L19.1088 7.75617L19.1632 7.68759V7.66475L19.202 7.59997C19.1999 7.58738 19.1999 7.57448 19.202 7.56189C19.2 7.5557 19.2 7.54902 19.202 7.54283C19.2103 7.5205 19.2168 7.49756 19.2215 7.47425C19.2196 7.46674 19.2196 7.4589 19.2215 7.45139C19.2196 7.44004 19.2196 7.42845 19.2215 7.41711C19.2215 7.41711 19.2992 7.26852 19.2992 7.26091Z" fill="black"/>
<path d="M8.93499 5.32551C8.95562 5.3438 8.97003 5.36785 8.97628 5.39441C8.98256 5.42098 8.98034 5.44879 8.96998 5.47409L7.24846 11.1278C7.22678 11.1895 7.18243 11.2411 7.1241 11.2726C7.07664 11.3037 7.0217 11.3221 6.96475 11.3259H1.49318C1.44646 11.3237 1.40219 11.3047 1.36883 11.2726C1.34898 11.2546 1.33506 11.2312 1.32882 11.2054C1.32259 11.1796 1.32435 11.1526 1.33385 11.1278L3.05927 5.47409C3.07915 5.41158 3.1221 5.3586 3.17974 5.32551C3.22798 5.29662 3.28265 5.27962 3.33906 5.27598H8.81064C8.857 5.27642 8.90145 5.29413 8.93499 5.32551ZM6.07873 9.98867L7.10854 6.61321H4.2251L3.19916 9.98867H6.07873ZM14.1579 5.38265C14.1765 5.40392 14.1999 5.42079 14.2261 5.432C14.2524 5.44321 14.2808 5.44849 14.3094 5.44742H15.0206C15.0477 5.44768 15.0743 5.44117 15.0982 5.4285C15.122 5.41584 15.1421 5.39743 15.1566 5.37503C15.1692 5.35754 15.1781 5.33773 15.1828 5.31678C15.1875 5.29584 15.1878 5.27419 15.1838 5.25312L15.0439 4.24734C15.0306 4.20079 15.0067 4.15781 14.974 4.12162C14.9553 4.10035 14.932 4.08348 14.9057 4.07227C14.8795 4.06106 14.851 4.05579 14.8224 4.05685H14.1112C14.0842 4.05659 14.0575 4.06311 14.0337 4.07577C14.0099 4.08844 13.9897 4.10684 13.9752 4.12924C13.948 4.18258 13.9364 4.21686 13.948 4.24734L14.0918 5.25312C14.0992 5.3021 14.1223 5.34748 14.1579 5.38265ZM16.4157 4.23972C16.4023 4.19317 16.3784 4.15019 16.3457 4.114C16.3278 4.09281 16.3052 4.07595 16.2796 4.06471C16.254 4.05348 16.2261 4.04818 16.1981 4.04923H15.483C15.4564 4.04849 15.43 4.05482 15.4068 4.06757C15.3835 4.08031 15.3642 4.09899 15.3509 4.12162C15.325 4.15542 15.3138 4.19787 15.3198 4.23972L15.4636 5.2455C15.4726 5.29396 15.4955 5.33889 15.5297 5.37503C15.5487 5.39589 15.572 5.41247 15.5982 5.42365C15.6244 5.43483 15.6527 5.44033 15.6812 5.4398H16.3962C16.4228 5.44014 16.449 5.43364 16.4722 5.42093C16.4954 5.40823 16.5148 5.38978 16.5284 5.36742C16.5419 5.35037 16.5513 5.33057 16.5561 5.30948C16.5608 5.28838 16.5606 5.26652 16.5556 5.2455L16.4157 4.23972ZM13.5322 5.76363L13.4623 5.26836H10.0153C9.96121 5.27128 9.90885 5.28839 9.86376 5.31789C9.83514 5.33319 9.81023 5.3544 9.79077 5.38005C9.77133 5.4057 9.75779 5.43518 9.75108 5.46647L9.4635 6.41129C9.45203 6.4349 9.4481 6.46139 9.45226 6.48723C9.45644 6.51307 9.46848 6.53706 9.48681 6.55607C9.51959 6.58627 9.56236 6.60387 9.60729 6.6056H13.7965L12.7667 9.98106H8.58914C8.53527 9.98226 8.48281 9.99809 8.43759 10.0268C8.38263 10.061 8.34249 10.1139 8.32489 10.1753L8.03344 11.1202C8.02392 11.1444 8.02142 11.1708 8.02622 11.1963C8.03104 11.2219 8.04292 11.2456 8.06062 11.2649C8.09237 11.2972 8.13548 11.3162 8.1811 11.3183H13.6682C13.725 11.3135 13.7797 11.2952 13.8275 11.2649C13.8849 11.2333 13.928 11.1816 13.948 11.1202L15.5258 5.95412H13.7498C13.7217 5.95466 13.6937 5.94954 13.6676 5.93905C13.6415 5.92857 13.618 5.91294 13.5983 5.89316C13.5662 5.85861 13.5434 5.81669 13.5322 5.77125V5.76363Z" fill="white"/>
</g>
<defs>
<clipPath id="clip0_0_1002">
<rect width="18.3627" height="10.016" fill="white" transform="translate(0.937958 3.69867)"/>
</clipPath>
</defs>
</svg>
