<svg width="60" height="60" viewBox="0 0 17 17" fill="none" xmlns="http://www.w3.org/2000/svg">
<path d="M14.0917 14.4072V13.0717C14.0917 12.3633 13.8103 11.684 13.3094 11.1831C12.8085 10.6822 12.1291 10.4008 11.4208 10.4008H10.753C10.5759 10.4008 10.4061 10.3304 10.2809 10.2052C10.1556 10.08 10.0853 9.91015 10.0853 9.73306V6.39439C10.0853 6.04021 9.94459 5.70053 9.69414 5.45008C9.44369 5.19963 9.10401 5.05893 8.74982 5.05893C8.39564 5.05893 8.05595 5.19963 7.80551 5.45008C7.55506 5.70053 7.41436 6.04021 7.41436 6.39439V12.404L5.8118 10.2672C5.6874 10.1014 5.5261 9.96677 5.34066 9.87405C5.15523 9.78133 4.95075 9.73306 4.74343 9.73306H4.45363C3.87604 9.73306 3.40796 10.2011 3.40796 10.7787C3.40796 10.9684 3.45937 11.1547 3.55686 11.3169L5.41116 14.4072M8.74982 3.05573V2.388V3.05573ZM12.7562 7.06213H13.424H12.7562ZM4.07569 7.06213H4.74343H4.07569ZM5.64019 3.95249L5.1681 3.48041L5.64019 3.95249ZM11.8595 3.95249L12.3315 3.48041L11.8595 3.95249Z" fill="#4CAF4F"/>
<path d="M14.0917 14.4072V13.0717C14.0917 12.3633 13.8103 11.684 13.3094 11.1831C12.8085 10.6822 12.1291 10.4008 11.4208 10.4008H10.753C10.5759 10.4008 10.4061 10.3304 10.2809 10.2052C10.1556 10.08 10.0853 9.91015 10.0853 9.73306V6.39439C10.0853 6.04021 9.94459 5.70052 9.69414 5.45008C9.44369 5.19963 9.10401 5.05893 8.74982 5.05893V5.05893C8.39564 5.05893 8.05596 5.19963 7.80551 5.45008C7.55506 5.70052 7.41436 6.04021 7.41436 6.39439V12.404L5.8118 10.2672C5.6874 10.1014 5.5261 9.96677 5.34066 9.87405C5.15523 9.78133 4.95075 9.73306 4.74343 9.73306H4.45363C3.87604 9.73306 3.40796 10.2011 3.40796 10.7787C3.40796 10.9684 3.45937 11.1547 3.55686 11.3169L5.41116 14.4072M8.74982 3.05573V2.388M12.7562 7.06213H13.424M4.07569 7.06213H4.74343M5.64019 3.95249L5.1681 3.48041M11.8595 3.95249L12.3315 3.48041" stroke="#4CAF4F" stroke-width="0.667733" stroke-linecap="round" stroke-linejoin="round"/>
</svg>
