<svg width="100" height="100" viewBox="0 0 23 20" fill="none" xmlns="http://www.w3.org/2000/svg">
<path d="M22.6285 13.1844C22.6285 16.5034 19.938 19.194 16.6189 19.194L7.60455 19.194C6.6826 19.194 5.93521 18.4466 5.93521 17.5246L5.93521 6.17317C5.93521 4.32928 7.42999 2.83451 9.27388 2.83451L20.9592 2.83451C21.8812 2.83451 22.6285 3.58189 22.6285 4.50384L22.6285 13.1844Z" fill="#E8F5E9"/>
<path d="M10.3796 8.39164C10.2992 8.39164 10.2245 8.36953 10.1582 8.33398V8.33492C10.1582 8.46141 10.1091 8.58019 10.0199 8.66915C9.93066 8.75835 9.81197 8.80751 9.68563 8.80751C9.60406 8.80751 9.52847 8.78486 9.46145 8.74836C9.45469 8.86407 9.40844 8.97222 9.32592 9.05482C9.23673 9.14402 9.11803 9.19318 8.99162 9.19318C8.74045 9.19318 8.53649 8.99574 8.52179 8.74828C8.44408 8.79028 8.35622 8.81231 8.2656 8.80649C8.01852 8.79028 7.82503 8.57681 7.82503 8.32037V6.19476L7.58299 6.61408C7.4908 6.77447 7.31823 6.87405 7.13243 6.87405C7.0419 6.87405 6.95246 6.85029 6.87326 6.80491C6.77462 6.74772 6.70406 6.65593 6.67472 6.54611C6.64523 6.43623 6.66049 6.32131 6.71751 6.22282C6.71759 6.22282 7.50944 4.85156 7.55775 4.76733C7.56349 4.75467 7.57985 4.71794 7.59378 4.68663C7.60707 4.65674 7.61847 4.62606 7.62941 4.59523C7.86821 3.92106 8.45949 3.50228 9.17261 3.50228C10.0986 3.50228 10.852 4.31922 10.852 5.32338L10.8521 7.91898C10.8521 8.0453 10.803 8.164 10.7139 8.25329C10.6247 8.34249 10.506 8.39165 10.3795 8.39165L10.3796 8.39164ZM9.17262 3.75339C8.55986 3.75339 8.07147 4.0995 7.8661 4.67921C7.85296 4.71602 7.83928 4.75283 7.82331 4.7887C7.77698 4.89261 7.77698 4.89261 7.76392 4.90755L7.76219 4.90606C7.69754 5.02806 7.50545 5.3607 6.93494 6.3485C6.9115 6.38901 6.90529 6.43604 6.91725 6.48104C6.92936 6.52603 6.95838 6.56394 6.99858 6.58715C7.12333 6.6588 7.29418 6.61255 7.36528 6.48867L7.84188 5.66353C7.87035 5.61437 7.92793 5.59022 7.98315 5.60517C8.03805 5.61988 8.0762 5.66967 8.0762 5.72646V8.32044C8.0762 8.44284 8.16854 8.54847 8.28205 8.55594C8.3475 8.5594 8.40854 8.53746 8.45439 8.49168C8.49608 8.44999 8.51905 8.39446 8.51905 8.33507V6.63857C8.51905 6.56919 8.57529 6.51295 8.64467 6.51295C8.71405 6.51295 8.77029 6.56911 8.77029 6.63857L8.77021 8.72068C8.77021 8.84276 8.86955 8.9421 8.99163 8.9421C9.05094 8.9421 9.10663 8.91914 9.1484 8.87745C9.19008 8.83568 9.21305 8.77999 9.21305 8.72068V6.63857C9.21305 6.56919 9.26921 6.51295 9.33867 6.51295C9.40805 6.51295 9.46429 6.56911 9.46429 6.63857L9.46421 8.31556V8.33506C9.46421 8.45706 9.56355 8.5564 9.68571 8.5564C9.74494 8.5564 9.80047 8.53336 9.84248 8.49151C9.88417 8.4499 9.90713 8.39437 9.90713 8.33498V6.63848C9.90713 6.5691 9.9633 6.51286 10.0328 6.51286C10.1021 6.51286 10.1584 6.56902 10.1584 6.63848L10.1582 7.91904C10.1582 8.0412 10.2576 8.14054 10.3796 8.14054C10.4389 8.14054 10.4945 8.1175 10.5362 8.07589C10.578 8.03404 10.6009 7.97835 10.6009 7.91904L10.601 5.32344C10.601 4.45781 9.96023 3.75342 9.17261 3.75342L9.17262 3.75339Z" fill="#103E13"/>
<path d="M5.44414 10.1956L7.26696 9.10213C7.48673 8.97014 7.76951 9.02623 7.91046 9.22987C7.96191 9.30405 7.98818 9.39049 7.99227 9.47852C8.06023 9.44304 8.13417 9.42377 8.20944 9.42377C8.24798 9.42377 8.28668 9.42857 8.32491 9.43809C8.44738 9.46868 8.55058 9.54522 8.61548 9.65345C8.68045 9.76184 8.69941 9.88886 8.66881 10.0112C8.64057 10.1244 8.57174 10.2196 8.47602 10.285C8.54296 10.3245 8.60069 10.3784 8.64175 10.447C8.70672 10.5554 8.72568 10.6823 8.69516 10.8048C8.66456 10.9271 8.58803 11.0303 8.47964 11.0954L8.47901 11.0958C8.54477 11.1352 8.60148 11.1885 8.64207 11.2561C8.70712 11.3645 8.72608 11.4915 8.69548 11.6139C8.6648 11.7363 8.58827 11.8395 8.48004 11.9045L6.25435 13.2397C5.83895 13.4889 5.35874 13.5748 4.90236 13.4816C4.4419 13.3876 4.06056 13.1229 3.82868 12.7363C3.46174 12.1248 3.51673 11.4022 3.97192 10.8507C3.99277 10.8256 4.0133 10.7999 4.03194 10.7733C4.05168 10.7453 4.07473 10.7122 4.08259 10.7009C4.12971 10.6167 4.89853 9.23154 4.89844 9.23171C4.97608 9.09162 5.1216 9.01232 5.27167 9.0124C5.34168 9.0124 5.41271 9.02963 5.47824 9.06597C5.55737 9.11017 5.62383 9.17459 5.67032 9.25223C5.76589 9.41151 5.76927 9.61084 5.67929 9.77215L5.44414 10.1956ZM5.45508 9.38136C5.43069 9.3407 5.39718 9.30829 5.3562 9.28532C5.27149 9.23844 5.16483 9.26896 5.11819 9.35336C4.56806 10.3445 4.38053 10.6822 4.30816 10.8024L4.30981 10.8028C4.30375 10.8229 4.30375 10.8229 4.23752 10.9176C4.21503 10.9496 4.19056 10.9803 4.16563 11.0106C3.77422 11.4848 3.72877 12.0816 4.04394 12.6071C4.23917 12.9326 4.56184 13.1558 4.95252 13.2355C5.34746 13.3158 5.76372 13.2411 6.12501 13.0243L8.3509 11.6891C8.40171 11.6586 8.43758 11.6102 8.4519 11.5529C8.46621 11.4956 8.45733 11.4361 8.42681 11.3853C8.36404 11.2807 8.22772 11.2463 8.12311 11.3093L7.02504 11.9681C6.96558 12.0038 6.88833 11.9846 6.8527 11.925C6.81699 11.8656 6.83626 11.7884 6.89573 11.7527L7.99387 11.0939L8.35051 10.88C8.40132 10.8495 8.43727 10.8011 8.45159 10.7439C8.4659 10.6866 8.45701 10.6269 8.42649 10.5762C8.36365 10.4715 8.22733 10.4374 8.1228 10.5002L6.66801 11.3729C6.60839 11.4087 6.53138 11.3894 6.49567 11.3299C6.45996 11.2704 6.47931 11.1933 6.5387 11.1576L8.32416 10.0865C8.37498 10.056 8.41084 10.0077 8.42516 9.95033C8.43948 9.89306 8.43059 9.83352 8.40015 9.78271C8.36971 9.73197 8.32133 9.6961 8.26399 9.68179C8.20633 9.66747 8.14702 9.67636 8.09637 9.70672L7.76585 9.90502C7.76577 9.90502 7.76577 9.9051 7.76569 9.9051H7.76561L6.31091 10.7778C6.25129 10.8137 6.1742 10.7943 6.13857 10.7348C6.10286 10.6753 6.12221 10.5982 6.1816 10.5625L7.63638 9.68973C7.68719 9.65922 7.72314 9.61084 7.73745 9.55366C7.75318 9.49089 7.74123 9.4267 7.70394 9.3729C7.63929 9.27938 7.50101 9.25452 7.39616 9.31752L5.17188 10.6519C5.12319 10.681 5.06081 10.6739 5.01999 10.6345C4.97909 10.595 4.96988 10.533 4.99741 10.4833L5.45993 9.65002C5.50634 9.56672 5.50453 9.46383 5.45505 9.38139L5.45508 9.38136Z" fill="#103E13"/>
<path d="M14.1544 12.7362C13.9226 13.1229 13.5414 13.3875 13.0808 13.4815C12.6244 13.5746 12.1443 13.4888 11.7288 13.2397L9.50295 11.9044C9.39464 11.8394 9.31802 11.7362 9.28735 11.6136C9.25691 11.4913 9.27594 11.3643 9.34083 11.2561C9.38134 11.1884 9.43813 11.1351 9.50397 11.0957L9.50334 11.0953C9.39503 11.0303 9.31842 10.9271 9.2879 10.8047C9.25723 10.6823 9.27626 10.5552 9.34123 10.4468C9.38308 10.3772 9.44042 10.3228 9.50586 10.2842C9.41084 10.2188 9.34241 10.1239 9.31425 10.0112C9.28358 9.88874 9.30261 9.7617 9.36758 9.65346C9.43248 9.54515 9.53575 9.46861 9.65815 9.43802C9.69638 9.42842 9.73516 9.42371 9.77354 9.42371C9.8489 9.42378 9.92284 9.4429 9.9908 9.47845C9.99497 9.39043 10.0212 9.30399 10.0726 9.22981C10.2136 9.02633 10.4962 8.97001 10.7163 9.10206L12.539 10.1954L12.3041 9.77223C12.2139 9.61066 12.2172 9.41134 12.3128 9.25198C12.3594 9.17442 12.4259 9.11 12.5054 9.0654C12.5708 9.02922 12.6416 9.01207 12.7114 9.01207C12.8614 9.01215 13.0071 9.09128 13.0847 9.23138C13.3549 9.71836 13.865 10.6368 13.9008 10.7009C13.9084 10.712 13.9315 10.745 13.9512 10.7731C13.97 10.7998 13.9903 10.8252 14.0113 10.8506C14.4665 11.4023 14.5213 12.1247 14.1544 12.7363L14.1544 12.7362ZM13.8175 11.0107C13.7925 10.9804 13.768 10.9495 13.7456 10.9176C13.6777 10.8212 13.676 10.8186 13.6708 10.7934C13.5914 10.662 13.3976 10.313 12.8648 9.35323C12.8181 9.26899 12.7119 9.23824 12.6274 9.28496C12.5858 9.30824 12.5523 9.34073 12.5279 9.38139C12.4785 9.46375 12.4767 9.56663 12.5233 9.65018L12.9857 10.4832C13.0133 10.533 13.0041 10.5949 12.9632 10.6344C12.9225 10.674 12.8602 10.6809 12.8113 10.6518L10.587 9.31744C10.4821 9.25459 10.3439 9.27921 10.2791 9.37282C10.2418 9.42662 10.23 9.49081 10.2455 9.5535C10.2599 9.61076 10.2958 9.65906 10.3467 9.68957C10.3468 9.68965 10.3469 9.68981 10.3471 9.68989L11.8014 10.5624C11.8609 10.5981 11.8801 10.6752 11.8444 10.7347C11.8087 10.7941 11.7317 10.8135 11.6721 10.7777L9.88662 9.70665C9.83597 9.67629 9.77635 9.66732 9.71908 9.68171C9.66166 9.69603 9.61337 9.7319 9.58293 9.78279C9.55241 9.83352 9.5436 9.89307 9.55776 9.95033C9.57207 10.0076 9.60802 10.056 9.65883 10.0865L10.0063 10.2949L11.4442 11.1576C11.5037 11.1933 11.523 11.2704 11.4872 11.3299C11.4515 11.3893 11.3745 11.4087 11.3149 11.373L9.86028 10.5002C9.75566 10.4373 9.61943 10.4714 9.5565 10.5762C9.52598 10.627 9.51717 10.6866 9.53133 10.7438C9.54564 10.8011 9.58159 10.8494 9.63248 10.88L9.98912 11.094L11.0871 11.7527C11.1466 11.7884 11.1658 11.8655 11.1301 11.9251C11.0944 11.9844 11.0174 12.004 10.9578 11.9681L9.85981 11.3093C9.80915 11.279 9.74976 11.27 9.69218 11.2844C9.63492 11.2987 9.58647 11.3346 9.55603 11.3853C9.52559 11.4361 9.5167 11.4957 9.53086 11.5529C9.54517 11.6102 9.58112 11.6585 9.63201 11.6891L11.8579 13.0244C12.2191 13.2411 12.6357 13.3161 13.0304 13.2356C13.421 13.1558 13.7437 12.9326 13.9389 12.6072C14.2544 12.0816 14.209 11.4847 13.8177 11.0106L13.8175 11.0107Z" fill="#103E13"/>
</svg>
