<svg width="60" height="60" viewBox="0 0 17 12" fill="none" xmlns="http://www.w3.org/2000/svg">
<path d="M11.3478 2.12002C11.1036 2.11958 10.8606 2.15334 10.6258 2.22032L10.6258 2.22031L10.6239 2.22088C10.5496 2.24303 10.4717 2.25019 10.3946 2.24194C10.3176 2.23368 10.2429 2.21018 10.1751 2.17281L10.0945 2.31904L10.1751 2.1728C10.1072 2.13543 10.0474 2.08492 9.99923 2.02422C9.95106 1.96352 9.91544 1.89385 9.89445 1.81925C9.87346 1.74465 9.86752 1.66663 9.87697 1.58971C9.88642 1.5128 9.91108 1.43853 9.94952 1.37124C9.98795 1.30395 10.0394 1.24497 10.1008 1.19775C10.1623 1.15052 10.2325 1.11599 10.3074 1.09617L10.3074 1.0962L10.3104 1.09534C10.6477 0.999323 10.9967 0.950901 11.3474 0.951486L11.3482 0.951484C12.1362 0.949195 12.9057 1.18981 13.552 1.64058C14.1984 2.09135 14.6901 2.73036 14.9602 3.4706C15.2304 4.21085 15.2658 5.01637 15.0617 5.77748C14.8576 6.53858 14.4239 7.2183 13.8196 7.72408L13.6159 7.89463L13.858 8.00417C14.8507 8.4534 15.7049 9.16034 16.3318 10.0515L16.3326 10.0525C16.3771 10.1149 16.4088 10.1854 16.4259 10.2601C16.4429 10.3348 16.4449 10.4121 16.4318 10.4876C16.4187 10.5631 16.3907 10.6352 16.3495 10.6997C16.3083 10.7643 16.2547 10.82 16.1917 10.8637L16.1917 10.8637L16.1897 10.8651C16.0923 10.9347 15.9754 10.972 15.8556 10.9717C15.7619 10.9711 15.6697 10.9482 15.5866 10.905C15.5035 10.8617 15.4319 10.7994 15.3777 10.723C14.9225 10.0772 14.3189 9.55009 13.6177 9.18596C12.9165 8.8218 12.138 8.63128 11.3479 8.63042H11.3477C11.1927 8.63042 11.0441 8.56886 10.9345 8.45929C10.825 8.34972 10.7634 8.20111 10.7634 8.04615C10.7634 7.89119 10.825 7.74258 10.9345 7.63301C11.0441 7.52344 11.1927 7.46188 11.3477 7.46188C12.0561 7.46188 12.7354 7.18048 13.2363 6.67958C13.7372 6.17869 14.0186 5.49932 14.0186 4.79095C14.0186 4.08257 13.7372 3.40321 13.2363 2.90232C12.7354 2.40145 12.0561 2.12005 11.3478 2.12002ZM11.3478 2.12002C11.3479 2.12002 11.3479 2.12002 11.348 2.12002L11.3477 2.28695V2.12002C11.3477 2.12002 11.3478 2.12002 11.3478 2.12002ZM8.71743 7.72435L8.51466 7.89493L8.75607 8.00417C9.74876 8.4534 10.603 9.16034 11.2299 10.0515L11.2298 10.0516L11.2349 10.0582C11.2836 10.1206 11.3191 10.1922 11.3393 10.2687L11.5007 10.2262L11.3393 10.2687C11.3594 10.3453 11.3639 10.4251 11.3522 10.5034C11.3406 10.5817 11.3132 10.6568 11.2717 10.7242C11.2302 10.7916 11.1754 10.8498 11.1107 10.8954C11.0459 10.941 10.9726 10.9729 10.8952 10.9893C10.8178 11.0057 10.7378 11.0061 10.6602 10.9907C10.5825 10.9752 10.5089 10.9441 10.4436 10.8993C10.3784 10.8545 10.3229 10.797 10.2806 10.7301L10.2807 10.73L10.2761 10.7234C9.82182 10.0764 9.2184 9.54819 8.51689 9.18357C7.81538 8.81896 7.03639 8.6286 6.24578 8.6286C5.45517 8.6286 4.67618 8.81896 3.97466 9.18357C3.27315 9.54819 2.66974 10.0764 2.21544 10.7234L2.21506 10.7239C2.16166 10.8006 2.09045 10.8632 2.00755 10.9064C1.92465 10.9495 1.83252 10.9719 1.73906 10.9717L1.73803 10.9717C1.61818 10.972 1.50122 10.9348 1.40371 10.8651L1.40291 10.8645C1.27651 10.7753 1.19067 10.6396 1.1642 10.4871C1.13773 10.3347 1.1728 10.178 1.26171 10.0514C1.88865 9.16028 2.74284 8.45338 3.73548 8.00417L3.97689 7.89493L3.77412 7.72435C3.17148 7.21738 2.73931 6.53736 2.5362 5.77648C2.33309 5.0156 2.36887 4.21067 2.63869 3.47081C2.9085 2.73095 3.3993 2.09195 4.04454 1.64045C4.68978 1.18895 5.45825 0.946783 6.24578 0.946783C7.0333 0.946783 7.80177 1.18895 8.44702 1.64045C9.09226 2.09195 9.58306 2.73095 9.85287 3.47081C10.1227 4.21067 10.1585 5.0156 9.95535 5.77648C9.75224 6.53736 9.32007 7.21738 8.71743 7.72435ZM1.30664 11.0009C1.43262 11.0909 1.58372 11.1391 1.73858 11.1386C1.85903 11.1389 1.97776 11.1101 2.08461 11.0545C2.19146 10.9989 2.28323 10.9182 2.35206 10.8193C2.79096 10.1942 3.37392 9.68395 4.05165 9.3317C4.72938 8.97944 5.48197 8.79554 6.24578 8.79554C7.00959 8.79554 7.76217 8.97944 8.4399 9.3317C9.11764 9.68395 9.7006 10.1942 10.1395 10.8193L1.30664 11.0009ZM4.02498 3.30706C3.73149 3.74629 3.57484 4.26269 3.57484 4.79095C3.57484 5.49932 3.85625 6.17869 4.35714 6.67958C4.85804 7.18048 5.5374 7.46188 6.24578 7.46188C6.77404 7.46188 7.29043 7.30523 7.72967 7.01175C8.1689 6.71826 8.51124 6.30112 8.7134 5.81307C8.91555 5.32502 8.96845 4.78799 8.86539 4.26988C8.76233 3.75177 8.50795 3.27585 8.13441 2.90232C7.76087 2.52878 7.28496 2.2744 6.76685 2.17134C6.24874 2.06828 5.7117 2.12117 5.22366 2.32333C4.73561 2.52549 4.31846 2.86783 4.02498 3.30706Z" fill="#4CAF4F" stroke="#4CAF4F" stroke-width="0.333867"/>
</svg>
