<svg width="100" height="100" viewBox="0 0 22 20" fill="none" xmlns="http://www.w3.org/2000/svg">
<path d="M21.8404 13.1844C21.8404 16.5034 19.1498 19.194 15.8308 19.194L6.81643 19.194C5.89448 19.194 5.1471 18.4466 5.1471 17.5246L5.1471 6.17317C5.1471 4.32928 6.64187 2.83451 8.48576 2.83451L20.1711 2.83451C21.093 2.83451 21.8404 3.58189 21.8404 4.50384L21.8404 13.1844Z" fill="#E8F5E9"/>
<path d="M8.14852 3.83612C6.9562 3.83612 5.98555 4.81565 5.98555 6.01304C5.98555 6.77053 6.37452 7.43936 6.96188 7.82922C6.25247 8.06642 5.63862 8.50976 5.18839 9.08974C4.93947 8.89827 4.66133 8.74429 4.36149 8.63395C4.81617 8.2964 5.1133 7.75416 5.1133 7.14473C5.1133 6.12919 4.29196 5.29785 3.28258 5.29785C2.27319 5.29785 1.45186 6.12919 1.45186 7.14473C1.45186 7.75451 1.74923 8.297 2.2043 8.63455C0.999511 9.07913 0.139069 10.2431 0.139069 11.613V12.5752C0.139192 12.6486 0.168535 12.7189 0.220562 12.7705C0.272588 12.8223 0.342987 12.8511 0.416344 12.8509H4.63807C4.64831 12.852 4.65854 12.8526 4.66877 12.8525H11.6285C11.6387 12.8526 11.6491 12.852 11.6592 12.8509H15.8813C16.033 12.8503 16.1559 12.7271 16.1563 12.5752V11.613C16.1563 10.2431 15.2973 9.07913 14.0932 8.63442C14.5483 8.297 14.8456 7.75438 14.8456 7.1446C14.8456 6.12907 14.0243 5.29772 13.0149 5.29772C12.0056 5.29772 11.1842 6.12907 11.1842 7.1446C11.1842 7.75403 11.4814 8.29636 11.9361 8.63383C11.6357 8.74442 11.3574 8.89889 11.1081 9.09084C10.6581 8.51051 10.0451 8.06656 9.33573 7.82922C9.92294 7.43936 10.3121 6.77053 10.3121 6.01304C10.3121 4.81565 9.34091 3.83612 8.14859 3.83612H8.14852ZM8.14852 4.38846C9.04027 4.38846 9.75916 5.11217 9.75916 6.01304C9.75916 6.90688 9.05148 7.62356 8.1696 7.63505C8.16258 7.63505 8.15567 7.63406 8.14852 7.63406C8.14137 7.63406 8.13459 7.63505 8.12744 7.63505C7.24557 7.6237 6.53836 6.90691 6.53836 6.01304C6.53836 5.11204 7.25664 4.38846 8.1484 4.38846H8.14852ZM3.28261 5.85015C3.99017 5.85015 4.561 6.42442 4.561 7.1447C4.561 7.86015 3.99755 8.43196 3.29665 8.43972C3.29197 8.43972 3.28741 8.43923 3.2826 8.43923C3.27792 8.43923 3.27335 8.43972 3.26855 8.43972C2.56765 8.43195 2.0042 7.86002 2.0042 7.1447C2.0042 6.42446 2.57503 5.85015 3.28259 5.85015H3.28261ZM13.0147 5.85015C13.7223 5.85015 14.2931 6.42442 14.2931 7.1447C14.2931 7.86015 13.7297 8.43196 13.0288 8.43972C13.0241 8.43972 13.0195 8.43923 13.0147 8.43923C13.0101 8.43923 13.0055 8.43972 13.0007 8.43972C12.2998 8.43195 11.7363 7.86002 11.7363 7.1447C11.7363 6.42446 12.3072 5.85015 13.0147 5.85015H13.0147ZM8.12737 8.18735C8.1344 8.18747 8.14131 8.18834 8.14846 8.18834C8.15548 8.18834 8.16239 8.18735 8.16954 8.18735C9.93811 8.19869 11.3535 9.62626 11.3535 11.4133L11.3534 12.3H4.94378V11.4133C4.94378 9.6261 6.35877 8.19871 8.12712 8.18735H8.12737ZM3.26146 8.99268C3.26849 8.99281 3.2754 8.99367 3.28255 8.99367C3.2897 8.99367 3.29648 8.99268 3.30363 8.99268C3.90182 8.99749 4.44775 9.20376 4.88245 9.54884C4.57139 10.0992 4.39151 10.7345 4.39151 11.4135V12.298H0.69118V11.6129C0.69118 10.1606 1.83309 9.00402 3.2614 8.99256L3.26146 8.99268ZM12.9936 8.99268C13.0007 8.99281 13.0075 8.99367 13.0147 8.99367C13.0218 8.99367 13.0286 8.99268 13.0358 8.99268C14.4641 9.00403 15.606 10.1607 15.606 11.6131V12.298H11.9038L11.9036 11.4135C11.9036 10.7349 11.7243 10.1001 11.4138 9.54982C11.8486 9.20425 12.3949 8.99748 12.9936 8.99268H12.9936Z" fill="#103E13"/>
</svg>
