<svg width="150" height="100" viewBox="0 0 64 10" fill="none" xmlns="http://www.w3.org/2000/svg">
<path d="M7.84231 5.52L5.61711 9.33103L3.39192 5.52H7.84231ZM8.43843 5.17938H2.7934L5.61711 10.0051L8.43843 5.17938Z" fill="white"/>
<path d="M11.7111 0.779916L13.9362 4.59095H9.48586L11.7111 0.779916ZM11.7111 0.0986938L8.88733 4.92441H14.5348L11.7111 0.0986938Z" fill="white"/>
<path d="M0.0879517 0.0986938L2.45554 4.36705L5.04274 0.205873L0.0879517 0.0986938Z" fill="#4CAF4F"/>
<path d="M5.61716 0.472656L8.1006 4.7172H3.12891L5.61716 0.472656Z" fill="#4CAF4F"/>
<path d="M8.74015 5.64386L11.226 10.0051H6.13605L8.66291 5.64386H8.74015Z" fill="#4CAF4F"/>
<path d="M9.27832 5.37946L11.7111 9.67401L14.1776 5.37946H9.27832Z" fill="#4CAF4F"/>
<path d="M24.8674 0.787659V9.19309H23.3325L19.6756 3.90276H19.614V9.19309H17.8369V0.787659H19.3965L23.0246 6.07389H23.0985V0.787659H24.8674Z" fill="white"/>
<path d="M29.1758 9.31622C28.5274 9.31622 27.9692 9.18488 27.5013 8.92221C27.0362 8.65681 26.6777 8.28196 26.426 7.79766C26.1743 7.31062 26.0484 6.73467 26.0484 6.06978C26.0484 5.42132 26.1743 4.8522 26.426 4.36243C26.6777 3.87266 27.0321 3.49097 27.489 3.21735C27.9487 2.94374 28.4877 2.80693 29.1061 2.80693C29.522 2.80693 29.9091 2.87397 30.2676 3.00804C30.6287 3.13937 30.9434 3.33774 31.2115 3.60315C31.4824 3.86856 31.6931 4.20237 31.8436 4.60458C31.9941 5.00406 32.0693 5.47194 32.0693 6.00822V6.48841H26.7461V5.4049H30.4235C30.4235 5.15318 30.3688 4.93018 30.2593 4.73591C30.1499 4.54165 29.998 4.38979 29.8038 4.28035C29.6122 4.16816 29.3893 4.11207 29.1348 4.11207C28.8694 4.11207 28.6341 4.17364 28.4289 4.29676C28.2264 4.41715 28.0677 4.57995 27.9528 4.78516C27.8379 4.98764 27.779 5.21337 27.7763 5.46236V6.49252C27.7763 6.80444 27.8338 7.07395 27.9487 7.30105C28.0663 7.52815 28.2319 7.70326 28.4453 7.82639C28.6587 7.94951 28.9118 8.01108 29.2046 8.01108C29.3988 8.01108 29.5767 7.98372 29.7381 7.92899C29.8995 7.87427 30.0377 7.79218 30.1526 7.68274C30.2676 7.57329 30.3551 7.43922 30.4153 7.28053L32.0324 7.38724C31.9503 7.77577 31.782 8.11505 31.5275 8.40508C31.2758 8.69238 30.9502 8.91674 30.5507 9.07817C30.154 9.23687 29.6957 9.31622 29.1758 9.31622Z" fill="white"/>
<path d="M34.5585 2.88902L35.7159 5.09298L36.902 2.88902H38.6956L36.8692 6.04105L38.7448 9.19309H36.9595L35.7159 7.01375L34.4928 9.19309H32.687L34.5585 6.04105L32.7527 2.88902H34.5585Z" fill="white"/>
<path d="M42.3565 9.31622C41.7108 9.31622 41.1554 9.17941 40.6902 8.9058C40.2278 8.62945 39.8721 8.24638 39.6231 7.75662C39.3769 7.26685 39.2537 6.7032 39.2537 6.06568C39.2537 5.41995 39.3782 4.85357 39.6272 4.36653C39.8789 3.87676 40.236 3.49507 40.6984 3.22146C41.1608 2.94511 41.7108 2.80693 42.3483 2.80693C42.8983 2.80693 43.3798 2.9068 43.793 3.10654C44.2062 3.30628 44.5331 3.58673 44.7739 3.9479C45.0147 4.30908 45.1474 4.73318 45.172 5.22021H43.5221C43.4756 4.90555 43.3525 4.65246 43.1527 4.46093C42.9557 4.26666 42.6972 4.16953 42.377 4.16953C42.1062 4.16953 41.8695 4.24341 41.667 4.39116C41.4673 4.53617 41.3113 4.74823 41.1991 5.02731C41.0869 5.3064 41.0309 5.64431 41.0309 6.04105C41.0309 6.44327 41.0856 6.78529 41.195 7.06711C41.3072 7.34893 41.4645 7.56372 41.667 7.71147C41.8695 7.85922 42.1062 7.9331 42.377 7.9331C42.5768 7.9331 42.756 7.89205 42.9147 7.80997C43.0761 7.72789 43.2088 7.60886 43.3128 7.4529C43.4195 7.29421 43.4893 7.10405 43.5221 6.88242H45.172C45.1446 7.36398 45.0133 7.78808 44.778 8.15472C44.5454 8.51863 44.2239 8.80319 43.8135 9.0084C43.4031 9.21361 42.9174 9.31622 42.3565 9.31622Z" fill="white"/>
<path d="M49.1644 9.31622C48.5159 9.31622 47.9577 9.18488 47.4899 8.92221C47.0247 8.65681 46.6663 8.28196 46.4146 7.79766C46.1628 7.31062 46.037 6.73467 46.037 6.06978C46.037 5.42132 46.1628 4.8522 46.4146 4.36243C46.6663 3.87266 47.0206 3.49097 47.4776 3.21735C47.9372 2.94374 48.4762 2.80693 49.0946 2.80693C49.5105 2.80693 49.8977 2.87397 50.2561 3.00804C50.6173 3.13937 50.9319 3.33774 51.2001 3.60315C51.471 3.86856 51.6816 4.20237 51.8321 4.60458C51.9826 5.00406 52.0579 5.47194 52.0579 6.00822V6.48841H46.7347V5.4049H50.4121C50.4121 5.15318 50.3573 4.93018 50.2479 4.73591C50.1385 4.54165 49.9866 4.38979 49.7923 4.28035C49.6008 4.16816 49.3778 4.11207 49.1233 4.11207C48.8579 4.11207 48.6226 4.17364 48.4174 4.29676C48.2149 4.41715 48.0562 4.57995 47.9413 4.78516C47.8264 4.98764 47.7676 5.21337 47.7648 5.46236V6.49252C47.7648 6.80444 47.8223 7.07395 47.9372 7.30105C48.0549 7.52815 48.2204 7.70326 48.4338 7.82639C48.6473 7.94951 48.9003 8.01108 49.1931 8.01108C49.3874 8.01108 49.5652 7.98372 49.7267 7.92899C49.8881 7.87427 50.0263 7.79218 50.1412 7.68274C50.2561 7.57329 50.3437 7.43922 50.4039 7.28053L52.0209 7.38724C51.9388 7.77577 51.7706 8.11505 51.5161 8.40508C51.2644 8.69238 50.9388 8.91674 50.5393 9.07817C50.1426 9.23687 49.6843 9.31622 49.1644 9.31622Z" fill="white"/>
<path d="M54.9472 5.54855V9.19309H53.1988V2.88902H54.8651V4.00126H54.939C55.0786 3.63462 55.3125 3.34458 55.6408 3.13117C55.9692 2.91501 56.3673 2.80693 56.8352 2.80693C57.2729 2.80693 57.6546 2.9027 57.9802 3.09423C58.3058 3.28576 58.5589 3.55937 58.7395 3.91507C58.9201 4.26803 59.0104 4.6894 59.0104 5.17917V9.19309H57.262V5.49109C57.2647 5.10529 57.1662 4.80432 56.9665 4.58816C56.7668 4.36927 56.4918 4.25982 56.1416 4.25982C55.9062 4.25982 55.6983 4.31044 55.5177 4.41168C55.3399 4.51292 55.2003 4.66067 55.0991 4.85494C55.0006 5.04647 54.95 5.27767 54.9472 5.54855Z" fill="white"/>
<path d="M63.7415 2.88902V4.20237H59.9451V2.88902H63.7415ZM60.807 1.37867H62.5554V7.2559C62.5554 7.41733 62.58 7.5432 62.6293 7.63349C62.6785 7.72105 62.7469 7.78261 62.8345 7.81818C62.9248 7.85375 63.0288 7.87153 63.1464 7.87153C63.2285 7.87153 63.3106 7.86469 63.3927 7.85101C63.4748 7.8346 63.5377 7.82228 63.5815 7.81407L63.8564 9.11511C63.7689 9.14247 63.6458 9.17394 63.4871 9.20951C63.3284 9.24781 63.1355 9.27107 62.9084 9.27928C62.487 9.2957 62.1176 9.2396 61.8002 9.11101C61.4856 8.98241 61.2407 8.78267 61.0656 8.51179C60.8905 8.24091 60.8043 7.89889 60.807 7.48574V1.37867Z" fill="white"/>
</svg>
