<svg width="52" height="9" viewBox="0 0 52 9" fill="none" xmlns="http://www.w3.org/2000/svg">
<path d="M6.34889 4.89459L4.54903 7.97714L2.7492 4.89459H6.34889ZM6.83106 4.61908H2.26508L4.54903 8.52238L6.83106 4.61908Z" fill="#263238"/>
<path d="M9.47816 1.06059L11.278 4.14314H7.6783L9.47816 1.06059ZM9.47816 0.509583L7.19418 4.41287H11.7621L9.47816 0.509583Z" fill="#263238"/>
<path d="M0.0767822 0.509583L1.99181 3.96205L4.08446 0.596275L0.0767822 0.509583Z" fill="#4CAF4F"/>
<path d="M4.5491 0.812012L6.55782 4.24521H2.53647L4.5491 0.812012Z" fill="#4CAF4F"/>
<path d="M7.07511 4.99475L9.08579 8.52237H4.96878L7.01264 4.99475H7.07511Z" fill="#4CAF4F"/>
<path d="M7.51044 4.78088L9.47816 8.25454L11.4732 4.78088H7.51044Z" fill="#4CAF4F"/>
<path d="M20.1197 1.06677V7.86551H18.8781L15.9203 3.58642H15.8705V7.86551H14.433V1.06677H15.6945L18.6291 5.34254H18.6889V1.06677H20.1197Z" fill="#263238"/>
<path d="M23.6045 7.9651C23.08 7.9651 22.6285 7.85887 22.2501 7.64641C21.8739 7.43174 21.5839 7.12854 21.3803 6.73681C21.1767 6.34288 21.0749 5.87701 21.0749 5.33922C21.0749 4.81471 21.1767 4.35438 21.3803 3.95823C21.5839 3.56208 21.8705 3.25335 22.2401 3.03203C22.6119 2.81072 23.0479 2.70006 23.5481 2.70006C23.8845 2.70006 24.1977 2.75428 24.4876 2.86273C24.7797 2.96896 25.0342 3.12941 25.2511 3.34408C25.4702 3.55876 25.6406 3.82876 25.7623 4.15409C25.8841 4.47721 25.9449 4.85565 25.9449 5.28943V5.67783H21.6393V4.80143H24.6137C24.6137 4.59782 24.5695 4.41745 24.4809 4.26032C24.3924 4.10319 24.2696 3.98036 24.1124 3.89183C23.9575 3.8011 23.7772 3.75573 23.5713 3.75573C23.3567 3.75573 23.1663 3.80552 23.0003 3.90511C22.8366 4.00249 22.7082 4.13417 22.6153 4.30016C22.5223 4.46393 22.4747 4.64651 22.4725 4.84791V5.68115C22.4725 5.93345 22.519 6.15144 22.6119 6.33513C22.7071 6.51882 22.841 6.66046 23.0136 6.76005C23.1863 6.85964 23.391 6.90944 23.6278 6.90944C23.7849 6.90944 23.9288 6.88731 24.0593 6.84304C24.1899 6.79878 24.3017 6.73239 24.3946 6.64386C24.4876 6.55534 24.5584 6.44689 24.6071 6.31853L25.915 6.40484C25.8486 6.71911 25.7125 6.99354 25.5067 7.22813C25.3031 7.46051 25.0397 7.64198 24.7166 7.77256C24.3957 7.90092 24.025 7.9651 23.6045 7.9651Z" fill="#263238"/>
<path d="M27.9583 2.76646L28.8945 4.54913L29.8539 2.76646H31.3046L29.8273 5.31598L31.3444 7.86551H29.9003L28.8945 6.10275L27.9052 7.86551H26.4445L27.9583 5.31598L26.4976 2.76646H27.9583Z" fill="#263238"/>
<path d="M34.2657 7.9651C33.7434 7.9651 33.2942 7.85444 32.9179 7.63313C32.5439 7.4096 32.2562 7.09977 32.0548 6.70362C31.8556 6.30747 31.756 5.85156 31.756 5.3359C31.756 4.8136 31.8567 4.35548 32.0581 3.96155C32.2617 3.5654 32.5506 3.25666 32.9246 3.03535C33.2986 2.81183 33.7434 2.70006 34.2591 2.70006C34.7039 2.70006 35.0934 2.78084 35.4276 2.9424C35.7618 3.10396 36.0263 3.3308 36.221 3.62294C36.4158 3.91507 36.5231 4.25811 36.543 4.65204H35.2085C35.1709 4.39753 35.0713 4.19282 34.9098 4.0379C34.7504 3.88077 34.5413 3.8022 34.2823 3.8022C34.0632 3.8022 33.8718 3.86196 33.708 3.98147C33.5465 4.09876 33.4203 4.27028 33.3296 4.49602C33.2388 4.72176 33.1935 4.99508 33.1935 5.31598C33.1935 5.64131 33.2377 5.91795 33.3263 6.14591C33.417 6.37386 33.5443 6.54759 33.708 6.6671C33.8718 6.78661 34.0632 6.84636 34.2823 6.84636C34.4439 6.84636 34.5889 6.81317 34.7172 6.74677C34.8478 6.68038 34.9551 6.58411 35.0392 6.45796C35.1255 6.3296 35.182 6.17578 35.2085 5.99652H36.543C36.5209 6.38603 36.4147 6.72907 36.2244 7.02563C36.0362 7.31997 35.7762 7.55014 35.4442 7.71612C35.1123 7.88211 34.7194 7.9651 34.2657 7.9651Z" fill="#263238"/>
<path d="M39.7723 7.9651C39.2478 7.9651 38.7963 7.85887 38.4178 7.64641C38.0416 7.43174 37.7517 7.12854 37.5481 6.73681C37.3445 6.34288 37.2427 5.87701 37.2427 5.33922C37.2427 4.81471 37.3445 4.35438 37.5481 3.95823C37.7517 3.56208 38.0383 3.25335 38.4079 3.03203C38.7797 2.81072 39.2157 2.70006 39.7158 2.70006C40.0522 2.70006 40.3654 2.75428 40.6553 2.86273C40.9475 2.96896 41.202 3.12941 41.4189 3.34408C41.638 3.55876 41.8084 3.82876 41.9301 4.15409C42.0518 4.47721 42.1127 4.85565 42.1127 5.28943V5.67783H37.807V4.80143H40.7815C40.7815 4.59782 40.7372 4.41745 40.6487 4.26032C40.5602 4.10319 40.4373 3.98036 40.2802 3.89183C40.1253 3.8011 39.9449 3.75573 39.7391 3.75573C39.5244 3.75573 39.3341 3.80552 39.1681 3.90511C39.0043 4.00249 38.876 4.13417 38.783 4.30016C38.6901 4.46393 38.6425 4.64651 38.6403 4.84791V5.68115C38.6403 5.93345 38.6867 6.15144 38.7797 6.33513C38.8749 6.51882 39.0088 6.66046 39.1814 6.76005C39.354 6.85964 39.5587 6.90944 39.7955 6.90944C39.9527 6.90944 40.0965 6.88731 40.2271 6.84304C40.3577 6.79878 40.4694 6.73239 40.5624 6.64386C40.6553 6.55534 40.7261 6.44689 40.7748 6.31853L42.0828 6.40484C42.0164 6.71911 41.8803 6.99354 41.6745 7.22813C41.4709 7.46051 41.2075 7.64198 40.8844 7.77256C40.5635 7.90092 40.1928 7.9651 39.7723 7.9651Z" fill="#263238"/>
<path d="M44.4497 4.91762V7.86551H43.0355V2.76646H44.3833V3.66609H44.4431C44.556 3.36953 44.7452 3.13494 45.0108 2.96232C45.2763 2.78748 45.5983 2.70006 45.9768 2.70006C46.3309 2.70006 46.6396 2.77752 46.903 2.93244C47.1663 3.08736 47.3711 3.30867 47.5171 3.59638C47.6632 3.88187 47.7362 4.2227 47.7362 4.61885V7.86551H46.322V4.87114C46.3243 4.55909 46.2446 4.31565 46.083 4.14081C45.9215 3.96376 45.699 3.87524 45.4158 3.87524C45.2254 3.87524 45.0572 3.91618 44.9112 3.99806C44.7673 4.07995 44.6544 4.19946 44.5726 4.35659C44.4929 4.51151 44.4519 4.69852 44.4497 4.91762Z" fill="#263238"/>
<path d="M51.563 2.76646V3.82876H48.4923V2.76646H51.563ZM49.1894 1.54481H50.6036V6.29861C50.6036 6.42919 50.6235 6.53099 50.6634 6.60403C50.7032 6.67485 50.7585 6.72464 50.8294 6.75341C50.9024 6.78218 50.9865 6.79657 51.0817 6.79657C51.148 6.79657 51.2144 6.79103 51.2808 6.77997C51.3472 6.76669 51.3981 6.75673 51.4335 6.75009L51.656 7.80244C51.5851 7.82457 51.4855 7.85002 51.3572 7.87879C51.2288 7.90977 51.0728 7.92858 50.8891 7.93522C50.5483 7.9485 50.2495 7.90313 49.9928 7.79912C49.7383 7.6951 49.5402 7.53354 49.3986 7.31444C49.2569 7.09534 49.1872 6.8187 49.1894 6.48452V1.54481Z" fill="#263238"/>
</svg>
