<svg width="148" height="145" viewBox="0 0 148 145" fill="none" xmlns="http://www.w3.org/2000/svg">
<path d="M74.1172 127.287C105.688 127.287 131.281 125.793 131.281 123.95C131.281 122.106 105.688 120.612 74.1172 120.612C42.5465 120.612 16.9534 122.106 16.9534 123.95C16.9534 125.793 42.5465 127.287 74.1172 127.287Z" fill="#F5F5F5"/>
<path d="M103.379 49.4147L100.454 48.2354C100.454 48.2354 96.5948 55.2729 95.4892 55.6296C93.9856 56.1131 90.8722 57.4575 89.0266 57.6934C88.776 57.9882 88.3662 58.9051 88.4045 59.2383C90.884 60.0667 96.3324 58.967 97.4999 58.1002C100.156 56.1337 103.379 49.4147 103.379 49.4147Z" fill="#E58A7B"/>
<path d="M104.278 47.8137C104.823 49.8274 101.869 53.8783 101.869 53.8783L97.9981 51.7084C97.9981 51.7084 98.7234 50.0426 99.6079 48.3474C101.026 45.6084 103.656 45.5171 104.278 47.8137Z" fill="#4CAF4F"/>
<path opacity="0.2" d="M104.278 47.8137C104.823 49.8274 101.869 53.8783 101.869 53.8783L97.9981 51.7084C97.9981 51.7084 98.7234 50.0426 99.6079 48.3474C101.026 45.6084 103.656 45.5171 104.278 47.8137Z" fill="black"/>
<path opacity="0.2" d="M99.5342 52.5752L101.058 53.4302L101.327 48.7513C100.439 49.4323 99.8143 51.4843 99.5342 52.5752Z" fill="black"/>
<path d="M101.731 46.2983C101.731 46.2983 98.7175 53.0027 100.475 65.4856H112.347C112.536 63.6636 111.911 54.7716 114.172 46.1863C112.87 45.9318 111.552 45.7634 110.228 45.6821C108.547 45.5848 106.863 45.5848 105.183 45.6821C104.018 45.8004 102.864 46.0064 101.731 46.2983Z" fill="#4CAF4F"/>
<path opacity="0.2" d="M101.731 46.2983C101.731 46.2983 98.7175 53.0027 100.475 65.4856H112.347C112.536 63.6636 111.911 54.7716 114.172 46.1863C112.87 45.9318 111.552 45.7634 110.228 45.6821C108.547 45.5848 106.863 45.5848 105.183 45.6821C104.018 45.8004 102.864 46.0064 101.731 46.2983Z" fill="black"/>
<g style="mix-blend-mode:multiply">
<path d="M98.977 124.215C98.9593 124.533 103.461 124.79 109.031 124.79C114.6 124.79 119.134 124.533 119.152 124.215C119.17 123.897 114.671 123.643 109.098 123.643C103.526 123.643 98.9976 123.9 98.977 124.215Z" fill="#E8ECF1"/>
</g>
<path d="M106.902 115.849L104.796 116.664L106.61 121.35L108.716 120.535L106.902 115.849Z" fill="#E58A7B"/>
<path d="M116.292 121.948H114.072L113.258 116.809H115.478L116.292 121.948Z" fill="#E58A7B"/>
<path d="M113.919 121.691H116.413C116.456 121.691 116.498 121.707 116.531 121.735C116.564 121.763 116.586 121.802 116.593 121.845L116.914 123.817C116.921 123.866 116.917 123.917 116.903 123.965C116.888 124.012 116.864 124.057 116.831 124.094C116.798 124.132 116.757 124.162 116.711 124.182C116.666 124.202 116.616 124.213 116.566 124.212C115.697 124.197 115.278 124.144 114.181 124.144C113.506 124.144 112.117 124.215 111.18 124.215C110.242 124.215 110.18 123.295 110.567 123.21C112.3 122.835 112.972 122.325 113.55 121.83C113.652 121.74 113.783 121.691 113.919 121.691Z" fill="#263238"/>
<path d="M106.548 120.931L108.907 120.241C108.949 120.229 108.994 120.232 109.034 120.249C109.074 120.266 109.107 120.296 109.128 120.335L110.012 122.104C110.033 122.149 110.043 122.198 110.043 122.247C110.043 122.296 110.032 122.345 110.011 122.39C109.99 122.434 109.959 122.474 109.921 122.506C109.883 122.537 109.839 122.56 109.791 122.573C108.933 122.809 108.358 122.953 107.285 123.266C106.545 123.481 105.79 123.832 105.059 124.065C104.552 124.227 103.361 124.233 102.745 124.233C101.834 124.233 101.63 123.272 102.023 123.227C103.01 123.118 103.143 123.168 103.688 122.894C104.581 122.504 105.39 121.945 106.07 121.249C106.199 121.103 106.364 120.993 106.548 120.931Z" fill="#263238"/>
<path d="M89.3981 57.6816L86.9569 56.6585L85.9516 59.365C86.9521 59.5174 87.97 59.5174 88.9706 59.365L89.3981 57.6816Z" fill="#E58A7B"/>
<path d="M85.1408 56.5878L85.0759 58.3862L85.9516 59.3591L86.9569 56.6526L85.1408 56.5878Z" fill="#E58A7B"/>
<path d="M107.191 116.247L105.079 117.062L106.014 119.485L108.126 118.67L107.191 116.247Z" fill="#CF6F64"/>
<path d="M115.478 116.809H113.258L113.68 119.459H115.9L115.478 116.809Z" fill="#CF6F64"/>
<path opacity="0.2" d="M100.097 62.1099C100.142 62.6435 100.192 63.1889 100.257 63.7491L109.084 60.8834C110.462 60.4748 111.66 59.6086 112.48 58.4275C112.515 57.6403 112.56 56.8118 112.627 55.948C112.657 55.5293 112.692 55.0989 112.731 54.6626C112.769 54.2262 112.822 53.7427 112.878 53.2769L100.097 62.1099Z" fill="black"/>
<path d="M102.981 52.4396L102.686 52.4042C102.86 50.9301 103.96 49.7685 105.118 49.7979V50.0928C104.104 50.0721 103.137 51.1188 102.981 52.4396Z" fill="white"/>
<path d="M104.552 55.1608H104.502V54.866C105.516 54.9043 106.469 53.8459 106.625 52.528L106.92 52.5634C106.763 54.0051 105.699 55.1608 104.552 55.1608Z" fill="white"/>
<path d="M110.062 40.0009C109.647 41.6253 109.157 44.6001 110.228 45.6822C110.228 45.6822 109.479 47.3302 106.463 47.3302C103.706 47.3302 105.183 45.6822 105.183 45.6822C107.017 45.2517 107.049 43.9132 106.808 42.6454L110.062 40.0009Z" fill="#E58A7B"/>
<path d="M108.736 41.0799L106.811 42.6455C106.87 42.9368 106.905 43.2327 106.914 43.5299C107.477 44.0901 108.606 42.672 108.721 41.9467C108.779 41.6612 108.784 41.3673 108.736 41.0799Z" fill="#CF6F64"/>
<path d="M103.5 39.9802C103.634 40.2124 103.814 40.4144 104.03 40.5737C104.245 40.733 104.491 40.8461 104.753 40.906C105.46 41.0622 105.814 40.4107 105.619 39.7561C105.445 39.1665 104.865 38.3734 104.145 38.509C103.991 38.5408 103.847 38.609 103.725 38.7079C103.602 38.8069 103.505 38.9337 103.442 39.0778C103.379 39.2218 103.351 39.3789 103.361 39.536C103.371 39.693 103.419 39.8453 103.5 39.9802Z" fill="#CF6F64"/>
<path d="M104.67 34.7824C103.567 35.2866 103.178 39.6677 104.564 40.3163C105.95 40.9649 106.757 33.8243 104.67 34.7824Z" fill="#263238"/>
<path d="M110.399 37.5567C110.133 39.7561 110.104 41.0504 108.924 42.1767C108.559 42.5504 108.097 42.8159 107.591 42.9438C107.084 43.0717 106.551 43.0571 106.052 42.9015C105.553 42.7459 105.107 42.4555 104.763 42.0623C104.418 41.669 104.189 41.1882 104.101 40.673C103.744 38.6977 104.237 35.434 106.442 34.5584C106.905 34.354 107.415 34.2773 107.918 34.3361C108.421 34.395 108.899 34.5874 109.303 34.8932C109.706 35.1991 110.021 35.6074 110.213 36.0757C110.406 36.544 110.47 37.0554 110.399 37.5567Z" fill="#E58A7B"/>
<path d="M106.775 35.9205C108.408 35.5048 109.608 35.2217 109.178 36.5809C108.609 38.397 107.925 40.1542 108.842 40.2338C109.402 40.2839 111.879 39.2343 111.563 38.17C111.289 37.2442 112.448 36.9907 112.654 36.5219C113.418 34.8237 111.233 35.0478 111.622 34.0159C112.011 32.984 109.853 31.3212 108.674 32.1496C106.754 33.4882 103.461 33.4675 105.192 31.2652C106.433 29.6937 104.219 30.0151 104.219 30.0151C104.219 30.0151 105.557 30.8082 103.305 32.0347C100.923 33.3437 103.107 36.861 106.775 35.9205Z" fill="#263238"/>
<path d="M111.265 39.9802C110.943 40.4468 110.458 40.7768 109.906 40.906C109.178 41.0622 108.898 40.4107 109.172 39.7561C109.417 39.1665 110.089 38.3734 110.785 38.509C111.481 38.6446 111.64 39.4023 111.265 39.9802Z" fill="#E58A7B"/>
<path d="M100.475 65.4856C100.475 65.4856 98.4817 83.3226 98.3254 90.0918C98.1662 97.1323 105.08 119.1 105.08 119.1L108.618 117.626C108.618 117.626 104.49 97.5539 105.08 90.6402C105.705 83.1015 108.288 65.4974 108.288 65.4974L100.475 65.4856Z" fill="#4CAF4F"/>
<path opacity="0.2" d="M105.428 70.3827C103.839 73.6788 104.909 80.1974 105.77 84.0597C106.097 81.3325 106.486 78.3725 106.855 75.6335C106.819 71.4234 106.492 68.1715 105.428 70.3827Z" fill="black"/>
<path d="M108.462 116.458C108.479 116.458 108.88 117.584 108.88 117.584L104.8 119.3L104.157 118.103L108.462 116.458Z" fill="#4CAF4F"/>
<path d="M104.688 65.4856C104.688 65.4856 106.212 82.4499 107.22 88.8034C108.329 95.7643 112.675 118.946 112.675 118.946H116.74C116.74 118.946 114.305 96.3274 113.845 89.4344C113.344 81.9576 112.347 65.4856 112.347 65.4856H104.688Z" fill="#4CAF4F"/>
<path d="M116.802 117.888C116.82 117.888 116.938 119.023 116.938 119.023H112.468L112.15 117.72L116.802 117.888Z" fill="#4CAF4F"/>
<path opacity="0.2" d="M115.245 116.544C115.236 116.544 115.227 116.541 115.22 116.535C115.213 116.529 115.209 116.52 115.207 116.511C115.184 116.305 112.987 95.8734 112.574 89.682C112.126 82.9659 111.224 68.0683 111.215 67.918C111.215 67.9131 111.215 67.9081 111.217 67.9035C111.219 67.8989 111.221 67.8946 111.224 67.891C111.228 67.8874 111.232 67.8845 111.236 67.8826C111.241 67.8806 111.246 67.8796 111.251 67.8796C111.26 67.8796 111.27 67.8832 111.277 67.8898C111.284 67.8964 111.288 67.9054 111.289 67.915C111.289 68.0654 112.2 82.9511 112.648 89.6791C113.061 95.8704 115.257 116.287 115.278 116.508C115.279 116.513 115.279 116.518 115.277 116.523C115.276 116.528 115.274 116.532 115.271 116.536C115.268 116.54 115.264 116.543 115.26 116.545C115.255 116.548 115.25 116.549 115.245 116.55V116.544Z" fill="black"/>
<path d="M107.026 38.17C107.026 38.3498 106.914 38.4943 106.796 38.4943C106.678 38.4943 106.592 38.3498 106.604 38.17C106.616 37.9902 106.716 37.8457 106.834 37.8457C106.952 37.8457 107.038 37.9931 107.026 38.17Z" fill="#263238"/>
<path d="M105.003 38.17C105.003 38.3498 104.888 38.4943 104.773 38.4943C104.658 38.4943 104.57 38.3498 104.579 38.17C104.588 37.9902 104.694 37.8457 104.812 37.8457C104.93 37.8457 105.015 37.9931 105.003 38.17Z" fill="#263238"/>
<path d="M105.64 38.2614C105.394 38.8105 105.077 39.325 104.697 39.7915C104.991 40.0863 105.543 39.9507 105.543 39.9507L105.64 38.2614Z" fill="#DF5753"/>
<path d="M105.693 40.7025C105.686 40.7026 105.68 40.7012 105.673 40.6985C105.667 40.6958 105.661 40.6918 105.657 40.6868C105.652 40.6819 105.648 40.676 105.646 40.6696C105.644 40.6631 105.643 40.6563 105.643 40.6495C105.644 40.6351 105.65 40.6216 105.66 40.6118C105.671 40.6019 105.685 40.5964 105.699 40.5964C105.925 40.598 106.147 40.549 106.352 40.4531C106.556 40.3572 106.736 40.2167 106.878 40.0421C106.889 40.0332 106.902 40.0283 106.915 40.0283C106.929 40.0283 106.942 40.0332 106.952 40.0421C106.962 40.052 106.967 40.0652 106.967 40.079C106.967 40.0927 106.962 40.1059 106.952 40.1158C106.799 40.3014 106.607 40.4504 106.389 40.552C106.171 40.6535 105.933 40.7049 105.693 40.7025Z" fill="#263238"/>
<path d="M107.385 37.6275C107.371 37.6348 107.356 37.6385 107.34 37.6385C107.324 37.6385 107.308 37.6348 107.294 37.6275C107.184 37.5562 107.058 37.5119 106.928 37.498C106.797 37.4842 106.665 37.5013 106.542 37.5479C106.53 37.5539 106.517 37.5574 106.504 37.5583C106.49 37.5592 106.477 37.5573 106.464 37.5529C106.452 37.5485 106.44 37.5417 106.43 37.5327C106.42 37.5237 106.412 37.5129 106.407 37.5007C106.396 37.4745 106.395 37.445 106.406 37.4186C106.416 37.3922 106.437 37.3709 106.463 37.3592C106.617 37.2963 106.784 37.2714 106.95 37.2868C107.115 37.3022 107.275 37.3574 107.415 37.4477C107.426 37.4554 107.436 37.4652 107.443 37.4767C107.451 37.4881 107.456 37.5009 107.458 37.5144C107.461 37.5278 107.461 37.5416 107.458 37.555C107.455 37.5683 107.449 37.5809 107.441 37.5921C107.427 37.609 107.407 37.6213 107.385 37.6275Z" fill="#263238"/>
<path d="M104.222 37.0379C104.206 37.034 104.192 37.0259 104.181 37.0143C104.171 37.0047 104.163 36.9932 104.158 36.9805C104.152 36.9679 104.15 36.9543 104.15 36.9406C104.15 36.9268 104.152 36.9132 104.158 36.9006C104.163 36.8879 104.171 36.8765 104.181 36.8669C104.294 36.7401 104.434 36.6412 104.592 36.5778C104.749 36.5144 104.919 36.4882 105.089 36.5013C105.102 36.5034 105.115 36.5082 105.127 36.5155C105.138 36.5229 105.148 36.5325 105.156 36.5438C105.164 36.5551 105.169 36.5679 105.172 36.5814C105.174 36.5949 105.174 36.6088 105.171 36.6221C105.165 36.6494 105.149 36.6735 105.126 36.6898C105.103 36.7061 105.075 36.7135 105.047 36.7106C104.913 36.7022 104.779 36.7243 104.655 36.7754C104.531 36.8265 104.42 36.9051 104.331 37.0054C104.318 37.0203 104.3 37.0313 104.281 37.037C104.262 37.0427 104.241 37.043 104.222 37.0379Z" fill="#263238"/>
<path d="M115.313 49.0874L112.247 48.2707C112.247 48.2707 109.24 55.6738 108.176 56.1544C106.731 56.8148 103.072 59.1026 101.515 60.1846C101.43 60.5532 101.498 61.529 101.692 61.7973C104.346 61.3138 109.426 59.3591 110.487 58.3656C112.908 56.0984 115.313 49.0874 115.313 49.0874Z" fill="#E58A7B"/>
<path d="M113.173 122.08C113.023 122.092 112.874 122.052 112.751 121.965C112.713 121.931 112.685 121.888 112.669 121.839C112.653 121.79 112.65 121.738 112.66 121.688C112.662 121.657 112.672 121.627 112.69 121.601C112.707 121.575 112.732 121.554 112.76 121.541C113.008 121.414 113.701 121.853 113.78 121.904C113.789 121.909 113.796 121.917 113.799 121.927C113.803 121.936 113.804 121.947 113.801 121.957C113.798 121.967 113.793 121.976 113.786 121.984C113.779 121.992 113.77 121.998 113.76 122.001C113.567 122.048 113.371 122.075 113.173 122.08ZM112.878 121.621C112.856 121.616 112.833 121.616 112.81 121.621C112.799 121.626 112.79 121.635 112.783 121.646C112.777 121.657 112.774 121.67 112.775 121.682C112.767 121.717 112.768 121.753 112.779 121.786C112.789 121.82 112.808 121.85 112.834 121.874C112.949 121.977 113.238 121.989 113.618 121.915C113.392 121.766 113.137 121.666 112.869 121.621H112.878Z" fill="#4CAF4F"/>
<path d="M113.745 122.001C113.737 122.003 113.729 122.003 113.721 122.001C113.5 121.877 113.084 121.391 113.146 121.143C113.156 121.104 113.178 121.069 113.209 121.044C113.241 121.018 113.28 121.005 113.32 121.004C113.36 120.999 113.4 121.002 113.438 121.014C113.476 121.026 113.512 121.046 113.541 121.072C113.786 121.281 113.801 121.924 113.801 121.957C113.802 121.966 113.8 121.976 113.796 121.985C113.791 121.993 113.783 122 113.774 122.004C113.764 122.006 113.754 122.005 113.745 122.001ZM113.35 121.102H113.329C113.261 121.102 113.252 121.14 113.249 121.155C113.214 121.299 113.476 121.668 113.695 121.842C113.694 121.593 113.617 121.35 113.474 121.146C113.439 121.116 113.395 121.1 113.35 121.102Z" fill="#4CAF4F"/>
<path d="M105.345 121.712C105.165 121.775 104.968 121.775 104.788 121.712C104.747 121.69 104.712 121.658 104.687 121.618C104.662 121.579 104.647 121.534 104.644 121.488C104.64 121.459 104.644 121.429 104.654 121.402C104.665 121.374 104.683 121.35 104.705 121.332C104.941 121.119 105.905 121.332 106.014 121.373C106.025 121.376 106.034 121.382 106.04 121.39C106.047 121.399 106.05 121.409 106.05 121.42C106.05 121.431 106.047 121.442 106.042 121.451C106.036 121.461 106.027 121.468 106.017 121.473C105.8 121.571 105.575 121.651 105.345 121.712ZM104.865 121.361C104.831 121.368 104.799 121.383 104.773 121.405C104.764 121.412 104.757 121.422 104.752 121.433C104.748 121.444 104.747 121.456 104.75 121.467C104.752 121.498 104.761 121.528 104.778 121.554C104.794 121.581 104.817 121.602 104.844 121.618C105 121.7 105.363 121.635 105.832 121.438C105.516 121.358 105.189 121.332 104.865 121.361Z" fill="#4CAF4F"/>
<path d="M106.009 121.473H105.985C105.69 121.42 105.101 121.081 105.083 120.827C105.083 120.768 105.109 120.686 105.251 120.639C105.299 120.622 105.349 120.615 105.4 120.618C105.451 120.621 105.5 120.634 105.546 120.656C105.864 120.813 106.032 121.379 106.041 121.405C106.043 121.414 106.043 121.424 106.04 121.432C106.038 121.441 106.033 121.449 106.026 121.455C106.022 121.463 106.016 121.469 106.009 121.473ZM105.31 120.727H105.28C105.189 120.76 105.189 120.798 105.189 120.81C105.189 120.963 105.616 121.243 105.914 121.337C105.846 121.101 105.7 120.893 105.501 120.748C105.442 120.718 105.374 120.71 105.31 120.727Z" fill="#4CAF4F"/>
<path d="M101.766 60.0107L98.691 61.4259L98.3343 62.3104L99.4693 63.074C99.4693 63.074 101.592 62.844 102.196 61.4789L101.766 60.0107Z" fill="#E58A7B"/>
<path d="M101.896 61.8475C101.827 61.2566 101.632 60.6875 101.324 60.1788L101.81 59.8132C102.176 60.3994 102.41 61.0584 102.494 61.7443L101.896 61.8475Z" fill="#263238"/>
<path d="M102.421 60.4294C102.486 60.5316 102.517 60.6514 102.512 60.7724C102.507 60.8935 102.464 61.0099 102.39 61.1058C102.316 61.2018 102.214 61.2726 102.098 61.3087C101.983 61.3447 101.859 61.3443 101.743 61.3074C101.628 61.2705 101.527 61.1989 101.453 61.1025C101.38 61.006 101.338 60.8893 101.334 60.7682C101.329 60.6471 101.362 60.5276 101.428 60.4258C101.493 60.324 101.589 60.245 101.701 60.1994C101.827 60.1352 101.973 60.1233 102.108 60.1664C102.243 60.2094 102.355 60.304 102.421 60.4294Z" fill="#263238"/>
<path d="M96.6125 62.5698L97.0223 62.9826L99.7818 61.8032L98.691 61.4259L96.6125 62.5698Z" fill="#E58A7B"/>
<path opacity="0.2" d="M108.462 116.458C108.479 116.458 108.88 117.584 108.88 117.584L104.8 119.3L104.157 118.103L108.462 116.458Z" fill="black"/>
<path opacity="0.2" d="M116.802 117.888C116.82 117.888 116.938 119.023 116.938 119.023H112.468L112.15 117.72L116.802 117.888Z" fill="black"/>
<path d="M116.112 48.2383C116.923 50.8534 113.754 54.4297 113.754 54.4297L109.375 52.643C109.894 51.1315 110.493 49.6484 111.168 48.2C112.512 45.3018 115.293 45.5996 116.112 48.2383Z" fill="#4CAF4F"/>
<path opacity="0.2" d="M116.112 48.2383C116.923 50.8534 113.754 54.4297 113.754 54.4297L109.375 52.643C109.894 51.1315 110.493 49.6484 111.168 48.2C112.512 45.3018 115.293 45.5996 116.112 48.2383Z" fill="black"/>
<path d="M72.6078 22.0371H70.7238V22.3408H72.6078V22.0371Z" fill="#4CAF4F"/>
<path d="M96.9952 34.0561L96.7672 39.1161L97.0706 39.1298L97.2986 34.0698L96.9952 34.0561Z" fill="#4CAF4F"/>
<path d="M96.409 23.3992H61.6196L58.3824 95.8439H93.1719L96.409 23.3992Z" fill="#4CAF4F"/>
<path opacity="0.56" d="M95.3713 24.3957H60.5818L57.3446 96.8404H92.1341L95.3713 24.3957Z" fill="#FAFAFA"/>
<path opacity="0.07" d="M94.3335 25.3893H59.544L56.3039 97.8339H91.0933L94.3335 25.3893Z" fill="#4CAF4F"/>
<path d="M90.374 56.9858H60.6791L60.4314 62.5285H90.1263L90.374 56.9858Z" fill="white"/>
<path d="M77.0095 52.9408H60.8589L60.7498 55.4203H76.9004L77.0095 52.9408Z" fill="#4CAF4F"/>
<path d="M89.7047 71.9453H60.0098L59.7622 77.488H89.4571L89.7047 71.9453Z" fill="white"/>
<path opacity="0.47" d="M84.2593 84.9736H64.2907L63.9929 91.616H83.9615L84.2593 84.9736Z" fill="#4CAF4F"/>
<path d="M82.9237 92.6479H62.9551C62.9464 92.6502 62.9373 92.6502 62.9286 92.6479C62.9257 92.6393 62.9257 92.63 62.9286 92.6214L63.2234 85.976C63.2234 85.9715 63.2243 85.967 63.2262 85.9629C63.228 85.9587 63.2306 85.955 63.234 85.952C63.2373 85.9489 63.2412 85.9466 63.2455 85.9452C63.2498 85.9437 63.2543 85.9432 63.2588 85.9436H83.2274C83.2311 85.9418 83.2351 85.9408 83.2392 85.9408C83.2433 85.9408 83.2473 85.9418 83.251 85.9436C83.253 85.9472 83.2541 85.9512 83.2541 85.9554C83.2541 85.9595 83.253 85.9636 83.251 85.9672L82.962 92.6273C82.9585 92.6342 82.9529 92.6399 82.9461 92.6436C82.9392 92.6473 82.9314 92.6488 82.9237 92.6479ZM62.9905 92.5772H82.8883L83.1832 86.0026H63.2853L62.9905 92.5772Z" fill="white"/>
<path d="M73.5217 67.9002H60.1897L60.0806 70.3827H73.4097L73.5217 67.9002Z" fill="#4CAF4F"/>
<path d="M83.8789 39.081C83.8027 40.6941 83.2291 42.2441 82.2367 43.5181C81.5022 44.4805 80.5569 45.2617 79.4734 45.8019C78.3899 46.3421 77.1971 46.6269 75.9864 46.6344C75.0081 46.6419 74.0386 46.449 73.1377 46.0676C72.2367 45.6861 71.4234 45.1243 70.7478 44.4167C70.0722 43.709 69.5486 42.8706 69.2093 41.9529C68.8701 41.0353 68.7222 40.0579 68.775 39.081C68.8787 37.0538 69.7529 35.1427 71.2188 33.7387C72.6848 32.3346 74.6318 31.5437 76.6616 31.5275C77.6406 31.5184 78.6112 31.7101 79.5132 32.0909C80.4153 32.4716 81.2297 33.0333 81.9061 33.7412C82.5825 34.4491 83.1065 35.2882 83.4459 36.2067C83.7852 37.1251 83.9326 38.1033 83.8789 39.081Z" fill="white"/>
<path d="M84.5895 33.1078C84.5703 33.5367 84.4177 33.949 84.1531 34.2871C83.9574 34.5427 83.7058 34.7502 83.4176 34.8938C83.1294 35.0374 82.8123 35.1132 82.4903 35.1156C82.1784 35.1175 81.8707 35.0429 81.5942 34.8985C81.3178 34.7541 81.0808 34.5442 80.9042 34.2871C80.6702 33.9397 80.5544 33.5262 80.574 33.1078C80.6025 32.5696 80.8352 32.0625 81.2247 31.6899C81.6142 31.3174 82.1312 31.1075 82.6702 31.103C82.9302 31.1006 83.1879 31.1515 83.4275 31.2525C83.6671 31.3536 83.8835 31.5026 84.0633 31.6904C84.2431 31.8782 84.3826 32.1009 84.4731 32.3447C84.5636 32.5884 84.6032 32.8481 84.5895 33.1078Z" fill="#4CAF4F"/>
<path d="M63.8779 59.7571C63.8638 59.9947 63.7601 60.2181 63.5877 60.3822C63.4154 60.5464 63.1872 60.6391 62.9492 60.6416C62.8343 60.643 62.7204 60.6208 62.6144 60.5763C62.5084 60.5319 62.4127 60.4662 62.3331 60.3833C62.2535 60.3004 62.1918 60.2021 62.1517 60.0944C62.1116 59.9867 62.0941 59.8719 62.1001 59.7571C62.1129 59.5191 62.2162 59.2949 62.3888 59.1305C62.5615 58.9661 62.7904 58.8738 63.0288 58.8727C63.1436 58.8717 63.2574 58.8942 63.3632 58.9388C63.469 58.9834 63.5645 59.0491 63.644 59.1319C63.7235 59.2147 63.7853 59.3129 63.8255 59.4204C63.8657 59.5279 63.8836 59.6425 63.8779 59.7571Z" fill="#263238"/>
<path d="M67.8522 59.7571C67.8387 59.995 67.7353 60.2187 67.5628 60.383C67.3903 60.5473 67.1617 60.6398 66.9235 60.6416C66.8089 60.6426 66.6952 60.6201 66.5896 60.5755C66.4839 60.5309 66.3886 60.4651 66.3093 60.3822C66.23 60.2994 66.1686 60.2012 66.1287 60.0937C66.0888 59.9862 66.0713 59.8716 66.0774 59.7571C66.0901 59.5196 66.193 59.2958 66.365 59.1315C66.537 58.9671 66.7652 58.8746 67.0031 58.8727C67.118 58.8713 67.232 58.8935 67.338 58.9379C67.444 58.9824 67.5397 59.0481 67.6193 59.131C67.6989 59.2139 67.7606 59.3122 67.8007 59.4199C67.8407 59.5276 67.8583 59.6424 67.8522 59.7571Z" fill="#263238"/>
<path d="M71.8294 59.7571C71.8159 59.995 71.7124 60.2187 71.5399 60.383C71.3675 60.5473 71.1389 60.6398 70.9007 60.6416C70.7859 60.6426 70.6722 60.6201 70.5664 60.5755C70.4606 60.5309 70.365 60.4652 70.2855 60.3824C70.206 60.2996 70.1443 60.2014 70.1041 60.0939C70.0638 59.9864 70.046 59.8718 70.0516 59.7571C70.0651 59.5193 70.1686 59.2955 70.3411 59.1313C70.5136 58.967 70.7421 58.8745 70.9803 58.8727C71.0952 58.8713 71.2092 58.8935 71.3152 58.9379C71.4211 58.9824 71.5169 59.0481 71.5965 59.131C71.6761 59.2139 71.7378 59.3122 71.7779 59.4199C71.8179 59.5276 71.8355 59.6424 71.8294 59.7571Z" fill="#263238"/>
<path d="M63.2087 74.7166C63.1945 74.9542 63.0908 75.1776 62.9185 75.3417C62.7461 75.5058 62.518 75.5985 62.28 75.6011C62.1652 75.602 62.0514 75.5795 61.9456 75.535C61.8399 75.4904 61.7443 75.4247 61.6648 75.3419C61.5853 75.2591 61.5236 75.1609 61.4833 75.0534C61.4431 74.9459 61.4253 74.8313 61.4309 74.7166C61.4444 74.4788 61.5479 74.255 61.7203 74.0908C61.8928 73.9265 62.1214 73.834 62.3596 73.8322C62.4744 73.8312 62.5881 73.8537 62.6939 73.8983C62.7997 73.9429 62.8953 74.0086 62.9748 74.0914C63.0543 74.1742 63.116 74.2724 63.1562 74.3799C63.1965 74.4874 63.2143 74.602 63.2087 74.7166Z" fill="#263238"/>
<path d="M67.1829 74.7166C67.1695 74.9539 67.0664 75.1773 66.8946 75.3415C66.7227 75.5057 66.4949 75.5985 66.2572 75.6011C66.1423 75.6025 66.0283 75.5803 65.9223 75.5358C65.8163 75.4914 65.7206 75.4257 65.641 75.3428C65.5614 75.2599 65.4997 75.1616 65.4596 75.0539C65.4196 74.9462 65.402 74.8314 65.4081 74.7166C65.4216 74.4788 65.5251 74.255 65.6975 74.0908C65.87 73.9265 66.0986 73.834 66.3368 73.8322C66.4515 73.8312 66.5651 73.8537 66.6707 73.8983C66.7764 73.9429 66.8717 74.0087 66.951 74.0915C67.0303 74.1744 67.0917 74.2726 67.1316 74.3801C67.1715 74.4876 67.189 74.6021 67.1829 74.7166Z" fill="#263238"/>
<path d="M71.169 74.7166C71.1555 74.9545 71.052 75.1782 70.8795 75.3425C70.707 75.5068 70.4785 75.5992 70.2403 75.6011C70.1256 75.6016 70.012 75.5788 69.9065 75.5341C69.8009 75.4894 69.7055 75.4237 69.6261 75.341C69.5467 75.2582 69.4849 75.1602 69.4445 75.0529C69.4041 74.9456 69.386 74.8312 69.3912 74.7166C69.4054 74.4791 69.5091 74.2557 69.6814 74.0915C69.8537 73.9274 70.0819 73.8347 70.3199 73.8322C70.4348 73.8308 70.5488 73.853 70.6547 73.8974C70.7607 73.9419 70.8565 74.0075 70.9361 74.0904C71.0156 74.1733 71.0774 74.2717 71.1174 74.3794C71.1575 74.4871 71.175 74.6019 71.169 74.7166Z" fill="#263238"/>
<path d="M75.1374 74.7166C75.1232 74.9542 75.0195 75.1776 74.8472 75.3417C74.6748 75.5058 74.4467 75.5985 74.2087 75.6011C74.094 75.6016 73.9804 75.5788 73.8748 75.5341C73.7693 75.4894 73.6739 75.4237 73.5945 75.341C73.515 75.2582 73.4533 75.1602 73.4129 75.0529C73.3725 74.9456 73.3544 74.8312 73.3596 74.7166C73.3737 74.4791 73.4774 74.2557 73.6498 74.0915C73.8221 73.9274 74.0503 73.8347 74.2883 73.8322C74.4031 73.8312 74.5168 73.8537 74.6226 73.8983C74.7284 73.9429 74.824 74.0086 74.9035 74.0914C74.983 74.1742 75.0447 74.2724 75.0849 74.3799C75.1252 74.4874 75.143 74.602 75.1374 74.7166Z" fill="#263238"/>
<path d="M79.1293 74.7166C79.1151 74.9542 79.0114 75.1776 78.8391 75.3417C78.6667 75.5058 78.4386 75.5985 78.2006 75.6011C78.0857 75.6025 77.9717 75.5803 77.8657 75.5358C77.7597 75.4914 77.664 75.4257 77.5844 75.3428C77.5048 75.2599 77.4431 75.1616 77.403 75.0539C77.363 74.9462 77.3454 74.8314 77.3515 74.7166C77.365 74.4788 77.4685 74.255 77.6409 74.0908C77.8134 73.9265 78.042 73.834 78.2802 73.8322C78.395 73.8312 78.5087 73.8537 78.6145 73.8983C78.7203 73.9429 78.8159 74.0086 78.8954 74.0914C78.9749 74.1742 79.0366 74.2724 79.0768 74.3799C79.1171 74.4874 79.1349 74.602 79.1293 74.7166Z" fill="#263238"/>
<path d="M78.5259 38.6876C79.7599 37.4808 79.8254 35.5466 78.6722 34.3673C77.5189 33.188 75.5837 33.2103 74.3497 34.417C73.1157 35.6237 73.0502 37.558 74.2034 38.7373C75.3567 39.9166 77.2919 39.8943 78.5259 38.6876Z" fill="#4CAF4F"/>
<path d="M82.2368 43.5181C81.5022 44.4805 80.5569 45.2617 79.4734 45.8019C78.3899 46.3421 77.1971 46.6269 75.9864 46.6344C74.8125 46.6444 73.6541 46.3653 72.6134 45.8219C71.5728 45.2784 70.6818 44.4872 70.0192 43.5181C71.452 42.0912 73.7192 41.1595 76.2312 41.1595C78.7431 41.1595 80.9307 42.0912 82.2368 43.5181Z" fill="#4CAF4F"/>
<path opacity="0.1" d="M78.5259 38.6876C79.7599 37.4808 79.8254 35.5466 78.6722 34.3673C77.5189 33.188 75.5837 33.2103 74.3497 34.417C73.1157 35.6237 73.0502 37.558 74.2034 38.7373C75.3567 39.9166 77.2919 39.8943 78.5259 38.6876Z" fill="white"/>
<path opacity="0.1" d="M82.2368 43.5181C81.5022 44.4805 80.5569 45.2617 79.4734 45.8019C78.3899 46.3421 77.1971 46.6269 75.9864 46.6344C74.8125 46.6444 73.6541 46.3653 72.6134 45.8219C71.5728 45.2784 70.6818 44.4872 70.0192 43.5181C71.452 42.0912 73.7192 41.1595 76.2312 41.1595C78.7431 41.1595 80.9307 42.0912 82.2368 43.5181Z" fill="white"/>
<path d="M38.8589 63.8641C38.5789 64.4773 38.284 65.1524 38.0275 65.807C37.771 66.4615 37.5086 67.1366 37.2816 67.8088C36.8181 69.1336 36.4651 70.4944 36.2261 71.8774L36.1613 72.3108C36.1551 72.3852 36.1621 72.46 36.1819 72.5319C36.2515 72.7763 36.3611 73.0074 36.5062 73.2159C36.8848 73.7557 37.3241 74.2503 37.8153 74.6901C38.3331 75.1718 38.8764 75.6255 39.4427 76.0492C40.0088 76.4856 40.6043 76.9101 41.191 77.3111L40.6397 78.3459C39.2387 77.7355 37.909 76.9732 36.6743 76.0728C36.0156 75.5924 35.4211 75.0296 34.9053 74.3982C34.5996 74.0223 34.3612 73.5964 34.2007 73.1393C34.1074 72.8537 34.0596 72.5552 34.0592 72.2548C34.0592 72.184 34.0592 72.0809 34.0592 72.0307V71.8863L34.0887 71.5914C34.2577 70.0554 34.5807 68.5403 35.0527 67.0688C35.2827 66.3435 35.5274 65.6212 35.8075 64.9166C36.0876 64.212 36.3765 63.5221 36.7332 62.8056L38.8589 63.8641Z" fill="#E58A7B"/>
<path d="M40.7753 77.1283L42.8598 76.0728L42.3202 78.3607C42.3202 78.3607 40.8903 78.7616 40.227 78.0658L40.7753 77.1283Z" fill="#E58A7B"/>
<path d="M44.7673 76.4472L44.213 78.34L42.3202 78.3607L42.8598 76.0728L44.7673 76.4472Z" fill="#E58A7B"/>
<path d="M47.7097 52.8258C47.8212 53.2344 47.9763 53.6297 48.1725 54.0051C48.1152 54.0701 48.0414 54.1184 47.9589 54.1448C47.8763 54.1713 47.7882 54.175 47.7038 54.1554L47.7097 52.8258Z" fill="#DF5753"/>
<path d="M47.6477 52.8434C47.7698 52.8434 47.8688 52.6916 47.8688 52.5044C47.8688 52.3171 47.7698 52.1653 47.6477 52.1653C47.5256 52.1653 47.4266 52.3171 47.4266 52.5044C47.4266 52.6916 47.5256 52.8434 47.6477 52.8434Z" fill="#263238"/>
<path d="M47.5829 52.1771L48.031 52.0504C48.031 52.0504 47.8129 52.3983 47.5829 52.1771Z" fill="#263238"/>
<path d="M41.9517 54.9898C42.22 56.3607 42.4883 58.8756 41.5272 59.7925C41.5272 59.7925 41.9045 61.1841 44.4548 61.1841C47.2586 61.1841 45.7933 59.7925 45.7933 59.7925C44.2631 59.4269 44.3015 58.2918 44.5698 57.2246L41.9517 54.9898Z" fill="#E58A7B"/>
<path d="M41.2058 51.8646C41.3473 54.1554 41.3591 55.1284 42.5148 56.3047C44.2572 58.0737 47.0404 57.4015 47.5858 55.1254C48.0782 53.0616 47.7657 49.6652 45.522 48.7542C45.0295 48.5513 44.4934 48.4774 43.9644 48.5395C43.4354 48.6016 42.931 48.7976 42.4989 49.109C42.0668 49.4204 41.7212 49.8369 41.4949 50.3191C41.2687 50.8013 41.1691 51.3333 41.2058 51.8646Z" fill="#E58A7B"/>
<path d="M41.4328 49.2879C40.283 49.7065 38.7499 49.394 39.3513 52.9408C39.9882 56.6968 39.0093 57.9322 39.0093 57.9322C39.0093 57.9322 43.3698 58.8609 47.8217 57.8761C47.8217 57.8761 46.4625 55.4998 46.8429 53.7486C47.3293 51.5374 46.9461 50.7207 46.9461 50.7207C46.9461 50.7207 43.0485 48.6982 41.4328 49.2879Z" fill="#263238"/>
<path d="M46.2974 53.0587C46.2986 53.4943 46.4233 53.9206 46.6571 54.2881C46.9696 54.7657 47.3382 54.5829 47.4296 54.0758C47.5121 53.6306 47.4502 52.8435 47.0522 52.5368C46.6542 52.2302 46.3033 52.5309 46.2974 53.0587Z" fill="#E58A7B"/>
<path d="M40.4334 49.6741C40.1031 48.7454 41.6775 47.3155 45.0091 47.9051C48.3406 48.4948 48.4851 51.2691 48.4851 51.2691L47.8128 50.4672L47.8423 51.3104L44.4194 51.9678L40.4334 49.6741Z" fill="#263238"/>
<path d="M40.7164 59.9488C40.6967 59.8141 40.7304 59.6772 40.8103 59.567C40.8901 59.4569 41.0098 59.3823 41.1439 59.3591C42.1817 59.1881 44.5403 58.8402 45.7255 59.0053C46.61 59.1291 46.8399 59.6421 46.8783 60.0637C46.8843 60.1376 46.8744 60.2118 46.8493 60.2815C46.8242 60.3512 46.7845 60.4147 46.7328 60.4678C46.6812 60.5208 46.6187 60.5622 46.5497 60.5892C46.4807 60.6161 46.4068 60.6279 46.3328 60.6239L41.2087 60.3939C41.0879 60.3879 40.973 60.3402 40.8832 60.2591C40.7935 60.178 40.7346 60.0683 40.7164 59.9488Z" fill="#4CAF4F"/>
<path opacity="0.6" d="M40.7164 59.9488C40.6967 59.8141 40.7304 59.6772 40.8103 59.567C40.8901 59.4569 41.0098 59.3823 41.1439 59.3591C42.1817 59.1881 44.5403 58.8402 45.7255 59.0053C46.61 59.1291 46.8399 59.6421 46.8783 60.0637C46.8843 60.1376 46.8744 60.2118 46.8493 60.2815C46.8242 60.3512 46.7845 60.4147 46.7328 60.4678C46.6812 60.5208 46.6187 60.5622 46.5497 60.5892C46.4807 60.6161 46.4068 60.6279 46.3328 60.6239L41.2087 60.3939C41.0879 60.3879 40.973 60.3402 40.8832 60.2591C40.7935 60.178 40.7346 60.0683 40.7164 59.9488Z" fill="black"/>
<path d="M43.6794 111.455L45.581 112.776L48.7622 108.462L46.8606 107.145L43.6794 111.455Z" fill="#E58A7B"/>
<path d="M39.2452 111.369L41.2529 112.513L44.0685 107.952L42.0608 106.808L39.2452 111.369Z" fill="#E58A7B"/>
<path d="M48.7592 108.462L47.12 110.685L45.2184 109.368L46.8576 107.145L48.7592 108.462Z" fill="#CF6F64"/>
<path d="M42.0578 106.808L44.0686 107.955L42.618 110.305L40.6073 109.158L42.0578 106.808Z" fill="#CF6F64"/>
<path d="M45.2832 74.3481C45.2832 74.3481 52.707 83.7029 51.3124 92.6509C50.1891 99.8771 43.6735 109.662 43.6735 109.662L40.6102 108.141C42.7694 103.815 44.612 99.3372 46.1235 94.7442C46.5896 93.3182 46.7256 91.8049 46.5213 90.3187C46.3171 88.8324 45.7778 87.412 44.9442 86.1647C41.1822 80.6721 35.156 83.9417 39.2098 74.3481H45.2832Z" fill="#4CAF4F"/>
<path opacity="0.6" d="M45.2832 74.3481C45.2832 74.3481 52.707 83.7029 51.3124 92.6509C50.1891 99.8771 43.6735 109.662 43.6735 109.662L40.6102 108.141C42.7694 103.815 44.612 99.3372 46.1235 94.7442C46.5896 93.3182 46.7256 91.8049 46.5213 90.3187C46.3171 88.8324 45.7778 87.412 44.9442 86.1647C41.1822 80.6721 35.156 83.9417 39.2098 74.3481H45.2832Z" fill="black"/>
<path opacity="0.4" d="M48.9243 80.3566L47.8453 79.2834C47.8453 79.3689 49.9356 92.2735 50.5223 95.8999C50.8685 94.8405 51.1336 93.7563 51.3154 92.6568C52.0053 88.2668 50.5636 83.7825 48.9243 80.3566Z" fill="black"/>
<path d="M48.5971 74.3481C48.5971 74.3481 57.5362 86.1058 57.7897 93.155C57.9991 99.0516 48.0605 110.476 48.0605 110.476L45.1712 108.607C45.1712 108.607 50.9881 100.493 52.4534 93.8656C51.8873 87.2969 39.9174 74.3481 39.9174 74.3481H48.5971Z" fill="#4CAF4F"/>
<path opacity="0.6" d="M48.5971 74.3481C48.5971 74.3481 57.5362 86.1058 57.7897 93.155C57.9991 99.0516 48.0605 110.476 48.0605 110.476L45.1712 108.607C45.1712 108.607 50.9881 100.493 52.4534 93.8656C51.8873 87.2969 39.9174 74.3481 39.9174 74.3481H48.5971Z" fill="black"/>
<path d="M37.5382 60.3173C36.5829 60.5443 35.666 64.0174 35.666 64.0174L39.4015 66.5116C39.4015 66.5116 40.6456 63.7638 40.2093 62.5609C39.7582 61.3079 38.7381 60.0313 37.5382 60.3173Z" fill="#4CAF4F"/>
<path opacity="0.2" d="M38.2693 62.555L38.0099 65.5829L39.3985 66.5145C39.7819 65.6513 40.0658 64.7473 40.2447 63.8198L38.2693 62.555Z" fill="black"/>
<path d="M49.7027 60.3851C49.7027 60.3851 50.8053 60.7713 48.5971 74.3451H39.2039C39.3631 70.5124 39.3661 68.1538 37.5381 60.3173C38.8534 60.0463 40.1866 59.8709 41.5271 59.7925C42.9474 59.6907 44.3731 59.6907 45.7933 59.7925C47.6271 59.9606 49.7027 60.3851 49.7027 60.3851Z" fill="#4CAF4F"/>
<path d="M50.6579 62.555C50.8701 63.1447 51.0942 63.7786 51.3301 64.3888C51.5659 64.9991 51.79 65.6271 52.0288 66.2462L52.7511 68.0978L52.9339 68.5606L53.0283 68.7906L53.0725 68.9056C53.0725 68.9262 53.0725 68.9262 53.0725 68.9233C53.0186 68.8473 52.948 68.7848 52.8661 68.7405C52.7495 68.6718 52.618 68.6324 52.4828 68.6255C52.3706 68.622 52.2588 68.6431 52.1556 68.6874C52.02 68.7493 52.02 68.7759 52.0229 68.7729C52.0474 68.7533 52.0692 68.7305 52.0878 68.7051C52.251 68.4908 52.3922 68.2607 52.5094 68.0182C52.648 67.7469 52.7806 67.458 52.9133 67.1661C53.1727 66.5765 53.4116 65.9662 53.6504 65.35C53.8892 64.7338 54.1162 64.1117 54.3373 63.4837L55.0095 61.6027L56.1446 61.8976C55.9205 63.242 55.6316 64.551 55.2837 65.8836C55.1156 66.547 54.9181 67.2044 54.694 67.8678C54.582 68.2009 54.4582 68.5311 54.3167 68.8702C54.1692 69.2382 53.9875 69.5915 53.7742 69.9257C53.6958 70.0381 53.609 70.1446 53.5147 70.2441C53.3642 70.4067 53.1815 70.5362 52.9782 70.6244C52.7978 70.7019 52.6024 70.7381 52.4062 70.7306C52.1864 70.7224 51.9724 70.6585 51.7841 70.5448C51.562 70.4062 51.3777 70.2148 51.2475 69.9876C51.2033 69.9109 51.165 69.8343 51.1384 69.7783L51.0824 69.6662L50.9704 69.4363L50.7463 68.9793C50.4515 68.366 50.1567 67.7469 49.9002 67.1248C49.6437 66.5027 49.3724 65.8718 49.1189 65.2379C48.8653 64.6041 48.6383 63.9702 48.4231 63.2862L50.6579 62.555Z" fill="#E58A7B"/>
<path d="M49.7027 60.3851C50.8319 60.6534 52.1026 63.9908 52.1026 63.9908L48.7445 66.8477C48.7445 66.8477 46.5716 63.2095 47.0109 62.0096C47.4679 60.7595 48.2285 60.0343 49.7027 60.3851Z" fill="#4CAF4F"/>
<path d="M55.5432 60.5473L56.7225 59.5625L57.5421 60.8391L56.9377 61.9035C56.9377 61.9035 55.9766 62.7879 55.1275 62.3369C54.9927 62.0339 54.9604 61.6953 55.0354 61.3724C55.1104 61.0494 55.2887 60.7598 55.5432 60.5473Z" fill="#E58A7B"/>
<path d="M58.8511 59.5655L58.7627 59.8869L56.8964 60.1994L56.7136 59.5625L58.8511 59.5655Z" fill="#E58A7B"/>
<path d="M48.2905 110.626L44.9236 108.451L45.5279 107.401L49.3106 109.727L48.2905 110.626Z" fill="#4CAF4F"/>
<path d="M42.5708 112.36C42.2754 112.324 41.9916 112.223 41.7394 112.065C41.729 112.062 41.72 112.055 41.7136 112.046C41.7072 112.037 41.7038 112.026 41.7038 112.015C41.7038 112.004 41.7072 111.993 41.7136 111.984C41.72 111.975 41.729 111.969 41.7394 111.965C41.8308 111.935 42.6239 111.691 42.8539 111.879C42.8797 111.901 42.8994 111.929 42.9108 111.961C42.9222 111.992 42.9249 112.026 42.9187 112.059C42.9146 112.112 42.897 112.164 42.8676 112.208C42.8382 112.252 42.798 112.288 42.7507 112.313C42.6955 112.343 42.6337 112.359 42.5708 112.36ZM41.9075 112.036C42.276 112.224 42.5708 112.292 42.7123 112.221C42.7432 112.204 42.7691 112.18 42.7877 112.15C42.8063 112.12 42.8169 112.086 42.8185 112.05C42.8185 112.003 42.8185 111.983 42.792 111.971C42.6681 111.871 42.2259 111.947 41.9016 112.036H41.9075Z" fill="#263238"/>
<path d="M41.7601 112.086C41.7445 112.086 41.7297 112.079 41.7188 112.068C41.7144 112.06 41.7121 112.051 41.7121 112.042C41.7121 112.032 41.7144 112.023 41.7188 112.015C41.7188 111.989 41.9104 111.349 42.2111 111.204C42.2496 111.187 42.2913 111.178 42.3335 111.178C42.3757 111.178 42.4174 111.187 42.4558 111.204C42.4973 111.217 42.5331 111.244 42.5577 111.28C42.5822 111.315 42.5941 111.358 42.5915 111.402C42.5708 111.667 42.0313 112.033 41.7836 112.095L41.7601 112.086ZM42.332 111.281C42.3033 111.282 42.2752 111.289 42.2495 111.302C42.0667 111.39 41.9163 111.735 41.8426 111.944C42.1021 111.835 42.4588 111.546 42.4706 111.384C42.4706 111.358 42.4706 111.325 42.4028 111.296C42.3807 111.284 42.3568 111.276 42.332 111.272V111.281Z" fill="#263238"/>
<path d="M46.778 113.634C46.4448 113.634 45.982 113.206 45.7284 112.944C45.7219 112.935 45.7184 112.924 45.7184 112.913C45.7184 112.902 45.7219 112.891 45.7284 112.882C45.7342 112.872 45.7425 112.865 45.7524 112.859C45.7622 112.854 45.7733 112.852 45.7844 112.852C45.9024 112.852 46.9254 113.006 47.0699 113.295C47.0852 113.32 47.0932 113.35 47.0932 113.38C47.0932 113.41 47.0852 113.44 47.0699 113.466C47.0482 113.511 47.0155 113.549 46.9747 113.578C46.934 113.607 46.8866 113.625 46.837 113.631L46.778 113.634ZM45.923 112.985C46.2945 113.345 46.6217 113.545 46.8075 113.522C46.84 113.517 46.871 113.505 46.8977 113.486C46.9244 113.467 46.9461 113.442 46.9608 113.413C46.9674 113.402 46.9709 113.391 46.9709 113.379C46.9709 113.367 46.9674 113.355 46.9608 113.345C46.8841 113.186 46.3387 113.05 45.923 112.985Z" fill="#263238"/>
<path d="M45.9554 112.97C45.8893 112.972 45.8231 112.967 45.7579 112.956C45.7488 112.954 45.7402 112.95 45.733 112.945C45.7257 112.939 45.7201 112.932 45.7166 112.923C45.7122 112.914 45.7099 112.905 45.7099 112.895C45.7099 112.885 45.7122 112.876 45.7166 112.867C45.7343 112.846 46.1323 112.366 46.5097 112.333C46.6165 112.325 46.7224 112.359 46.8045 112.428C46.9195 112.528 46.9136 112.616 46.8841 112.673C46.8104 112.873 46.3004 112.97 45.9554 112.97ZM45.8788 112.861C46.209 112.879 46.7367 112.77 46.8045 112.625C46.8045 112.625 46.8281 112.578 46.7515 112.513C46.721 112.487 46.6853 112.467 46.6468 112.455C46.6082 112.442 46.5676 112.438 46.5274 112.443C46.2732 112.513 46.0468 112.661 45.8788 112.864V112.861Z" fill="#263238"/>
<path d="M41.8397 111.767L39.3395 111.06C39.2964 111.047 39.25 111.05 39.2092 111.069C39.1684 111.088 39.1361 111.122 39.1184 111.163L38.2752 113.059C38.2554 113.107 38.2461 113.159 38.2479 113.212C38.2498 113.264 38.2626 113.316 38.2858 113.363C38.3089 113.41 38.3417 113.451 38.382 113.485C38.4224 113.518 38.4694 113.543 38.5199 113.557C39.4044 113.787 39.8289 113.852 40.9286 114.167C41.6067 114.356 42.5738 114.707 43.5084 114.972C44.443 115.238 44.7555 114.326 44.3929 114.132C42.7536 113.265 42.6239 112.658 42.1758 112.009C42.0955 111.892 41.9766 111.806 41.8397 111.767Z" fill="#4CAF4F"/>
<path d="M45.7962 112.599L43.6617 111.125C43.6255 111.098 43.5809 111.086 43.5363 111.09C43.4918 111.095 43.4503 111.115 43.4199 111.148L42.0048 112.67C41.9703 112.709 41.9446 112.755 41.9293 112.805C41.9141 112.855 41.9096 112.908 41.9163 112.96C41.923 113.012 41.9407 113.061 41.9681 113.106C41.9956 113.15 42.0322 113.189 42.0755 113.218C42.8273 113.722 43.2165 113.926 44.157 114.577C44.7466 114.978 45.8876 115.868 46.6837 116.423C47.4797 116.977 48.0723 116.216 47.7893 115.916C46.5215 114.562 46.2444 113.713 46.035 112.944C45.9987 112.804 45.9141 112.682 45.7962 112.599Z" fill="#4CAF4F"/>
<path d="M44.0656 109.857L40.2181 107.944L40.6161 106.9L44.726 108.916L44.0656 109.857Z" fill="#4CAF4F"/>
<path d="M39.0624 73.7938L38.7381 74.6429C38.7057 74.7078 38.7823 74.7756 38.8914 74.7756H48.6443C48.7298 74.7756 48.8005 74.7343 48.8064 74.6812L48.889 73.838C48.889 73.782 48.8211 73.7319 48.7298 73.7319H39.2157C39.1871 73.7292 39.1582 73.7334 39.1315 73.7442C39.1048 73.755 39.0811 73.772 39.0624 73.7938Z" fill="#4CAF4F"/>
<path opacity="0.4" d="M39.0624 73.7938L38.7381 74.6429C38.7057 74.7078 38.7823 74.7756 38.8914 74.7756H48.6443C48.7298 74.7756 48.8005 74.7343 48.8064 74.6812L48.889 73.838C48.889 73.782 48.8211 73.7319 48.7298 73.7319H39.2157C39.1871 73.7292 39.1582 73.7334 39.1315 73.7442C39.1048 73.755 39.0811 73.772 39.0624 73.7938Z" fill="white"/>
<path d="M40.5984 74.8581H40.3419C40.2918 74.8581 40.2535 74.8316 40.2564 74.7992L40.3773 73.7054C40.3773 73.6759 40.4245 73.6493 40.4746 73.6493H40.7311C40.7812 73.6493 40.8196 73.6759 40.8166 73.7054L40.6957 74.7992C40.6928 74.8316 40.6486 74.8581 40.5984 74.8581Z" fill="#4CAF4F"/>
<path d="M46.6129 74.8581H46.3593C46.3092 74.8581 46.2709 74.8316 46.2738 74.7992L46.3918 73.7054C46.3918 73.6759 46.4419 73.6493 46.492 73.6493H46.7456C46.7957 73.6493 46.837 73.6759 46.8311 73.7054L46.7131 74.7992C46.6984 74.8316 46.666 74.8581 46.6129 74.8581Z" fill="#4CAF4F"/>
<g style="mix-blend-mode:multiply">
<path d="M40.3744 124.787C44.7365 124.787 48.2728 124.531 48.2728 124.215C48.2728 123.899 44.7365 123.643 40.3744 123.643C36.0122 123.643 32.476 123.899 32.476 124.215C32.476 124.531 36.0122 124.787 40.3744 124.787Z" fill="#F5F5F5"/>
</g>
<path d="M45.1859 123.407C43.7885 123 42.2377 122.478 41.3001 121.933C41.2736 121.915 41.2441 121.906 41.2176 121.892V115.565H44.045C44.2596 115.552 44.4612 115.458 44.6087 115.301C44.7562 115.145 44.8383 114.938 44.8383 114.723C44.8383 114.508 44.7562 114.301 44.6087 114.145C44.4612 113.988 44.2596 113.894 44.045 113.881H41.2323V85.0414H39.5341V113.881H36.7244C36.6097 113.875 36.4948 113.891 36.3868 113.93C36.2787 113.97 36.1799 114.031 36.0962 114.109C36.0126 114.188 35.946 114.283 35.9004 114.389C35.8549 114.494 35.8314 114.608 35.8314 114.723C35.8314 114.838 35.8549 114.952 35.9004 115.057C35.946 115.163 36.0126 115.258 36.0962 115.337C36.1799 115.415 36.2787 115.476 36.3868 115.516C36.4948 115.555 36.6097 115.572 36.7244 115.565H39.5341V121.883C39.5076 121.883 39.481 121.906 39.4545 121.924C38.5022 122.478 36.9632 123 35.5658 123.398C35.4714 123.427 35.3903 123.488 35.3372 123.571C35.2842 123.655 35.2627 123.754 35.2766 123.852C35.2905 123.949 35.3389 124.039 35.413 124.104C35.4871 124.169 35.5821 124.205 35.6807 124.206H45.0709C45.1652 124.2 45.2544 124.161 45.3236 124.097C45.3929 124.033 45.438 123.947 45.4514 123.853C45.4649 123.76 45.4459 123.664 45.3975 123.583C45.3492 123.502 45.2745 123.44 45.1859 123.407Z" fill="#E0E0E0"/>
<path d="M45.6193 82.1049H35.1353C34.2919 82.1049 33.6081 82.7887 33.6081 83.6321V86.7485C33.6081 87.5919 34.2919 88.2757 35.1353 88.2757H45.6193C46.4628 88.2757 47.1465 87.5919 47.1465 86.7485V83.6321C47.1465 82.7887 46.4628 82.1049 45.6193 82.1049Z" fill="#4CAF4F"/>
<path d="M35.038 88.2786V88.8152C35.038 89.2574 35.5186 89.6171 36.1082 89.6171H44.6582C45.2478 89.6171 45.7284 89.2574 45.7284 88.8152V88.2786H35.038Z" fill="#4CAF4F"/>
<path opacity="0.3" d="M35.038 88.2786V88.8152C35.038 89.2574 35.5186 89.6171 36.1082 89.6171H44.6582C45.2478 89.6171 45.7284 89.2574 45.7284 88.8152V88.2786H35.038Z" fill="white"/>
</svg>
