<svg width="35" height="35" viewBox="0 0 11 12" fill="none" xmlns="http://www.w3.org/2000/svg">
<path opacity="0.1" fill-rule="evenodd" clip-rule="evenodd" d="M0.13916 5.72724C0.13916 2.77701 2.53079 0.385376 5.48102 0.385376C8.43126 0.385376 10.8229 2.77701 10.8229 5.72724C10.8229 8.67747 8.43126 11.0691 5.48102 11.0691C2.53079 11.0691 0.13916 8.67747 0.13916 5.72724Z" fill="white"/>
<path fill-rule="evenodd" clip-rule="evenodd" d="M5.32103 4.72727L5.33224 4.91211L5.14542 4.88948C4.46537 4.80271 3.87126 4.50848 3.36683 4.01431L3.12022 3.76912L3.0567 3.95018C2.92218 4.35382 3.00812 4.78008 3.28836 5.06677C3.43783 5.22521 3.4042 5.24784 3.14638 5.15353C3.0567 5.12336 2.97823 5.10072 2.97076 5.11204C2.9446 5.13845 3.03428 5.48172 3.10527 5.61752C3.20242 5.80614 3.40046 5.99098 3.61718 6.10037L3.80027 6.18713L3.58355 6.19091C3.3743 6.19091 3.36683 6.19468 3.38925 6.2739C3.46398 6.51909 3.75917 6.77938 4.08798 6.89255L4.31964 6.97176L4.11787 7.09247C3.81895 7.266 3.46772 7.36408 3.11648 7.37162C2.94834 7.37539 2.81009 7.39048 2.81009 7.4018C2.81009 7.43952 3.26595 7.65077 3.53124 7.73376C4.32712 7.97895 5.27246 7.87333 5.9824 7.45461C6.48683 7.1566 6.99126 6.56436 7.22666 5.99098C7.3537 5.68542 7.48074 5.12713 7.48074 4.8593C7.48074 4.68577 7.49195 4.66314 7.7012 4.45567C7.8245 4.33496 7.94034 4.20293 7.96276 4.1652C8.00012 4.09353 7.99638 4.09353 7.80582 4.15766C7.48822 4.27083 7.44338 4.25574 7.60031 4.08599C7.71615 3.96527 7.8544 3.74648 7.8544 3.68235C7.8544 3.67104 7.79835 3.6899 7.73483 3.72385C7.66757 3.76157 7.51811 3.81816 7.40601 3.85211L7.20424 3.91623L7.02115 3.79175C6.92027 3.72385 6.77828 3.6484 6.70355 3.62577C6.51298 3.57296 6.22154 3.5805 6.04966 3.64086C5.58259 3.81061 5.2874 4.24819 5.32103 4.72727Z" fill="white"/>
</svg>
