<svg width="35" height="35" viewBox="0 0 11 12" fill="none" xmlns="http://www.w3.org/2000/svg">
<path opacity="0.1" fill-rule="evenodd" clip-rule="evenodd" d="M0.113556 5.72724C0.113556 2.77701 2.50519 0.385376 5.45542 0.385376C8.40565 0.385376 10.7973 2.77701 10.7973 5.72724C10.7973 8.67747 8.40565 11.0691 5.45542 11.0691C2.50519 11.0691 0.113556 8.67747 0.113556 5.72724Z" fill="white"/>
<path fill-rule="evenodd" clip-rule="evenodd" d="M8.3044 5.72328C8.3044 5.91595 8.28479 6.10836 8.24626 6.29591C8.20869 6.479 8.15305 6.65876 8.08015 6.83059C8.00893 6.99939 7.92059 7.16205 7.81736 7.31375C7.71567 7.46448 7.59853 7.6059 7.46984 7.73481C7.34088 7.86317 7.19898 7.97999 7.04832 8.08211C6.89612 8.18462 6.73323 8.27283 6.56433 8.34438C6.39224 8.4169 6.21207 8.47246 6.02914 8.50996C5.84134 8.54859 5.64823 8.56831 5.45528 8.56831C5.26219 8.56831 5.06909 8.54859 4.88156 8.50996C4.69835 8.47246 4.51819 8.4169 4.34623 8.34438C4.17735 8.27283 4.01429 8.18462 3.8621 8.08211C3.71144 7.98 3.56954 7.86317 3.44085 7.73481C3.31203 7.6059 3.19489 7.46448 3.09306 7.31375C2.99039 7.16205 2.9019 6.99938 2.8304 6.83059C2.75749 6.65876 2.70171 6.47899 2.66401 6.29591C2.6259 6.10836 2.60641 5.91595 2.60641 5.72328C2.60641 5.53046 2.62588 5.33765 2.66402 5.15051C2.70172 4.96741 2.7575 4.78738 2.83041 4.61582C2.90191 4.4469 2.9904 4.28409 3.09307 4.13239C3.1949 3.98153 3.31204 3.84038 3.44086 3.71132C3.56955 3.58296 3.71145 3.46642 3.86211 3.36445C4.01431 3.26151 4.17736 3.17331 4.34624 3.10162C4.5182 3.02895 4.69835 2.97325 4.88157 2.93603C5.0691 2.89769 5.2622 2.87823 5.45529 2.87823C5.64824 2.87823 5.84134 2.89769 6.02915 2.93603C6.21208 2.97326 6.39224 3.02896 6.56434 3.10162C6.73323 3.17329 6.89613 3.26151 7.04833 3.36445C7.19899 3.46642 7.3409 3.58296 7.46986 3.71132C7.59854 3.84038 7.71568 3.98153 7.81737 4.13239C7.92059 4.28409 8.00893 4.44691 8.08015 4.61582C8.15305 4.78738 8.20869 4.96741 8.24626 5.15051C8.28479 5.33765 8.3044 5.53046 8.3044 5.72328ZM4.41717 3.52573C3.73868 3.84566 3.23229 4.46996 3.07439 5.22234C3.13853 5.22289 4.15243 5.23568 5.3206 4.92574C4.89949 4.17864 4.44959 3.56894 4.41717 3.52573ZM5.52218 5.29986C4.26942 5.67437 3.0673 5.64742 3.02418 5.64576C3.02347 5.67188 3.02222 5.69715 3.02222 5.72328C3.02222 6.34742 3.25803 6.91643 3.64561 7.34667C3.64478 7.34541 4.31061 6.16587 5.6236 5.74189C5.65531 5.73134 5.6876 5.72188 5.71959 5.71272C5.65852 5.57464 5.59187 5.43628 5.52218 5.29986ZM7.06209 3.89984C6.63374 3.52267 6.07129 3.29389 5.45527 3.29389C5.25758 3.29389 5.06574 3.31778 4.88196 3.36196C4.91841 3.41086 5.37542 4.01626 5.79152 4.77918C6.70957 4.43551 7.0561 3.90873 7.06209 3.89984ZM5.88544 6.1153C5.88002 6.1171 5.8746 6.11864 5.8693 6.12058C4.43376 6.62031 3.96497 7.6274 3.9599 7.6384C4.37295 7.95915 4.89102 8.15267 5.45529 8.15267C5.79222 8.15267 6.11317 8.08417 6.40518 7.96013C6.36915 7.74786 6.2278 7.00382 5.88544 6.1153ZM6.81488 7.73814C7.36119 7.37001 7.74918 6.78545 7.85742 6.10834C7.80734 6.09223 7.12663 5.87704 6.34131 6.00277C6.66044 6.87852 6.79011 7.59173 6.81488 7.73814ZM5.97879 5.14121C6.03526 5.25707 6.08995 5.37499 6.14044 5.4935C6.15839 5.53602 6.17592 5.5777 6.19303 5.61936C7.02885 5.51434 7.85229 5.69104 7.88749 5.69826C7.88193 5.12231 7.67561 4.59373 7.33422 4.1799C7.32963 4.18641 6.9394 4.74945 5.97879 5.14121Z" fill="white"/>
</svg>
