<svg width="35" height="35" viewBox="0 0 11 12" fill="none" xmlns="http://www.w3.org/2000/svg">
<path opacity="0.1" fill-rule="evenodd" clip-rule="evenodd" d="M0.164734 5.72724C0.164734 2.77701 2.55637 0.385376 5.5066 0.385376C8.45683 0.385376 10.8485 2.77701 10.8485 5.72724C10.8485 8.67747 8.45683 11.0691 5.5066 11.0691C2.55637 11.0691 0.164734 8.67747 0.164734 5.72724Z" fill="white"/>
<path fill-rule="evenodd" clip-rule="evenodd" d="M7.73275 3.89082C7.97793 3.9581 8.17101 4.15633 8.23654 4.40807C8.35561 4.86431 8.35561 5.81627 8.35561 5.81627C8.35561 5.81627 8.35561 6.76819 8.23654 7.22447C8.17101 7.47621 7.97793 7.67444 7.73275 7.74175C7.28844 7.86398 5.50662 7.86398 5.50662 7.86398C5.50662 7.86398 3.7248 7.86398 3.28045 7.74175C3.03528 7.67444 2.84219 7.47621 2.77667 7.22447C2.65762 6.76819 2.65762 5.81627 2.65762 5.81627C2.65762 5.81627 2.65762 4.86431 2.77667 4.40807C2.84219 4.15633 3.03528 3.9581 3.28045 3.89082C3.7248 3.76855 5.50662 3.76855 5.50662 3.76855C5.50662 3.76855 7.28844 3.76855 7.73275 3.89082ZM4.97244 5.01497V6.79559L6.39693 5.90532L4.97244 5.01497Z" fill="white"/>
</svg>
